<svg width="30" height="30" viewBox="0 0 30 30" fill="none" xmlns="http://www.w3.org/2000/svg">
<circle cx="15" cy="15" r="14" stroke="white" stroke-width="2"/>
<mask id="path-2-inside-1_196_7" fill="white">
<path d="M15 -6.55671e-07C13.0302 -5.69567e-07 11.0796 0.387987 9.25975 1.14181C7.43986 1.89563 5.78628 3.00052 4.3934 4.3934C3.00052 5.78628 1.89563 7.43987 1.14181 9.25975C0.387985 11.0796 -8.27879e-07 13.0302 -6.55671e-07 15C-4.83463e-07 16.9698 0.387986 18.9204 1.14181 20.7403C1.89563 22.5601 3.00052 24.2137 4.3934 25.6066C5.78628 26.9995 7.43987 28.1044 9.25975 28.8582C11.0796 29.612 13.0302 30 15 30L15 15L15 -6.55671e-07Z"/>
</mask>
<path d="M15 -6.55671e-07C13.0302 -5.69567e-07 11.0796 0.387987 9.25975 1.14181C7.43986 1.89563 5.78628 3.00052 4.3934 4.3934C3.00052 5.78628 1.89563 7.43987 1.14181 9.25975C0.387985 11.0796 -8.27879e-07 13.0302 -6.55671e-07 15C-4.83463e-07 16.9698 0.387986 18.9204 1.14181 20.7403C1.89563 22.5601 3.00052 24.2137 4.3934 25.6066C5.78628 26.9995 7.43987 28.1044 9.25975 28.8582C11.0796 29.612 13.0302 30 15 30L15 15L15 -6.55671e-07Z" fill="white" stroke="white" stroke-width="4" mask="url(#path-2-inside-1_196_7)"/>
</svg>
