<svg width="1280" height="203" viewBox="0 0 1280 203" fill="none" xmlns="http://www.w3.org/2000/svg">
<path d="M100.075 202.368C144.707 202.368 179.914 175.478 193.497 137.222L175.755 130.015C165.221 162.726 136.668 184.349 100.075 184.349C52.9483 184.349 20.2368 149.42 20.2368 101.184C20.2368 52.9484 52.9483 18.0191 100.075 18.0191C136.945 18.0191 165.498 39.9192 176.032 72.9079L193.774 65.9775C180.191 27.4444 144.984 0 100.075 0C41.8597 0 0 45.4635 0 101.184C0 157.459 41.8597 202.368 100.075 202.368Z" fill="white"/>
<path d="M316.044 202.368C373.705 202.368 415.565 157.459 415.565 101.461C415.565 45.4635 373.705 0 316.044 0C257.829 0 215.969 45.4635 215.969 101.184C215.969 157.459 257.829 202.368 316.044 202.368ZM236.206 101.184C236.206 52.9484 268.917 18.0191 316.044 18.0191C362.616 18.0191 396.16 52.9484 396.16 101.461C396.16 149.42 362.616 184.349 316.044 184.349C268.917 184.349 236.206 149.42 236.206 101.184Z" fill="white"/>
<path d="M443.297 198.21H462.702V51.5623L461.316 34.9293H464.089L472.405 51.5623L573.589 198.21H592.994V4.15824H573.589V150.806L574.975 167.439H572.203L563.886 150.806L462.702 4.15824H443.297V198.21Z" fill="white"/>
<path d="M677.524 198.21H696.929V22.1773H759.302V4.15824H615.15V22.1773H677.524V198.21Z" fill="white"/>
<path d="M800.766 120.589H870.07L909.157 198.21H929.671V196.824L894.742 129.46L884.762 118.371V115.599C905.276 107.006 921.632 87.6004 921.632 62.3737C921.632 27.9989 896.405 4.15824 862.031 4.15824H781.361V198.21H800.766V120.589ZM800.766 102.57V22.1773H858.981C882.545 22.1773 902.227 37.147 902.227 62.3737C902.227 87.6004 882.545 102.57 858.981 102.57H800.766Z" fill="white"/>
<path d="M1038.32 202.368C1095.98 202.368 1137.84 157.459 1137.84 101.461C1137.84 45.4635 1095.98 0 1038.32 0C980.108 0 938.248 45.4635 938.248 101.184C938.248 157.459 980.108 202.368 1038.32 202.368ZM958.485 101.184C958.485 52.9484 991.196 18.0191 1038.32 18.0191C1084.9 18.0191 1118.44 52.9484 1118.44 101.461C1118.44 149.42 1084.9 184.349 1038.32 184.349C991.196 184.349 958.485 149.42 958.485 101.184Z" fill="white"/>
<path d="M1168.35 198.21H1279.23V180.191H1187.75V4.15824H1168.35V198.21Z" fill="white"/>
</svg>
