<svg width="343" height="179" viewBox="0 0 343 179" fill="none" xmlns="http://www.w3.org/2000/svg">
<path d="M70.7485 137.761H72.3058L71.4706 141.615H75.7597L76.5775 137.761H78.1174L76.1686 147H74.6026L75.49 142.867H71.2183L70.3309 147H68.7736L70.7485 137.761ZM84.8599 145.852C84.3147 146.321 83.7898 146.666 83.2852 146.887C82.7806 147.102 82.2412 147.209 81.667 147.209C80.8144 147.209 80.1271 146.959 79.6051 146.461C79.0831 145.956 78.8221 145.312 78.8221 144.529C78.8221 144.013 78.9381 143.558 79.1701 143.163C79.4079 142.763 79.7211 142.444 80.1097 142.206C80.4983 141.963 80.9739 141.789 81.5365 141.684C81.8903 141.615 82.5602 141.56 83.5462 141.519C84.538 141.478 85.2485 141.374 85.6777 141.206C85.7995 140.777 85.8604 140.42 85.8604 140.136C85.8604 139.77 85.727 139.483 85.4602 139.274C85.0948 138.984 84.5612 138.839 83.8594 138.839C83.1982 138.839 82.6559 138.987 82.2325 139.283C81.8149 139.573 81.5104 139.988 81.319 140.527L79.7269 140.388C80.0517 139.472 80.565 138.77 81.2668 138.283C81.9744 137.795 82.8647 137.552 83.9377 137.552C85.0803 137.552 85.9851 137.824 86.6521 138.37C87.1625 138.776 87.4177 139.303 87.4177 139.953C87.4177 140.446 87.3452 141.017 87.2002 141.667L86.6869 143.964C86.5245 144.694 86.4433 145.289 86.4433 145.747C86.4433 146.037 86.5071 146.455 86.6347 147H85.0426C84.9556 146.698 84.8947 146.316 84.8599 145.852ZM85.4428 142.319C85.2224 142.406 84.9846 142.473 84.7294 142.519C84.48 142.566 84.0595 142.615 83.4679 142.667C82.5515 142.749 81.9048 142.853 81.5278 142.981C81.1508 143.102 80.8666 143.3 80.6752 143.572C80.4838 143.845 80.3881 144.146 80.3881 144.477C80.3881 144.918 80.5389 145.28 80.8405 145.564C81.1479 145.849 81.5829 145.991 82.1455 145.991C82.6675 145.991 83.1692 145.854 83.6506 145.582C84.132 145.303 84.5119 144.918 84.7903 144.425C85.0687 143.932 85.2862 143.23 85.4428 142.319ZM97.0225 134.028H98.5711C98.3971 134.91 98.0694 135.455 97.588 135.664C97.1066 135.867 96.5324 135.968 95.8654 135.968L94.2646 135.934C93.6962 135.934 93.2554 136.023 92.9422 136.203C92.6348 136.377 92.3825 136.612 92.1853 136.908C91.9881 137.204 91.672 137.871 91.237 138.909C91.8518 138.341 92.426 138.007 92.9596 137.908C93.499 137.81 93.8963 137.761 94.1515 137.761C95.0041 137.761 95.8045 138.08 96.5527 138.718C97.3009 139.356 97.675 140.315 97.675 141.597C97.675 143.094 97.2168 144.404 96.3004 145.53C95.384 146.649 94.1834 147.209 92.6986 147.209C91.527 147.209 90.6135 146.852 89.9581 146.139C89.3085 145.419 88.9837 144.486 88.9837 143.337C88.9837 142.073 89.2969 140.53 89.9233 138.709C90.5497 136.882 91.2341 135.707 91.9765 135.185C92.7247 134.663 93.673 134.402 94.8214 134.402L96.2134 134.428C96.6716 134.428 96.9413 134.295 97.0225 134.028ZM96.109 141.528C96.109 140.774 95.9205 140.165 95.5435 139.701C95.1723 139.237 94.6503 139.005 93.9775 139.005C92.9509 139.005 92.1215 139.457 91.4893 140.362C90.8571 141.261 90.541 142.296 90.541 143.468C90.541 144.123 90.7382 144.697 91.1326 145.19C91.527 145.683 92.0606 145.93 92.7334 145.93C93.7426 145.93 94.5575 145.446 95.1781 144.477C95.7987 143.503 96.109 142.519 96.109 141.528ZM98.8495 143.494C98.8495 141.69 99.3802 140.197 100.442 139.013C101.317 138.039 102.466 137.552 103.887 137.552C105 137.552 105.897 137.9 106.575 138.596C107.26 139.292 107.602 140.231 107.602 141.415C107.602 142.476 107.387 143.465 106.958 144.381C106.529 145.292 105.917 145.991 105.122 146.478C104.333 146.965 103.501 147.209 102.625 147.209C101.906 147.209 101.251 147.055 100.659 146.748C100.073 146.44 99.6238 146.005 99.3106 145.443C99.0032 144.88 98.8495 144.23 98.8495 143.494ZM100.424 143.337C100.424 144.207 100.633 144.868 101.051 145.321C101.468 145.767 101.999 145.991 102.643 145.991C102.979 145.991 103.313 145.924 103.643 145.791C103.974 145.651 104.281 145.443 104.565 145.164C104.85 144.886 105.09 144.57 105.288 144.216C105.491 143.856 105.653 143.471 105.775 143.059C105.955 142.485 106.044 141.934 106.044 141.406C106.044 140.571 105.833 139.924 105.409 139.466C104.992 139.002 104.464 138.77 103.826 138.77C103.333 138.77 102.883 138.889 102.477 139.126C102.071 139.358 101.703 139.701 101.373 140.153C101.048 140.605 100.807 141.133 100.65 141.736C100.5 142.334 100.424 142.867 100.424 143.337ZM107.715 150.541L110.386 137.761H111.839L111.569 139.048C112.108 138.486 112.59 138.097 113.013 137.882C113.442 137.662 113.895 137.552 114.37 137.552C115.252 137.552 115.983 137.874 116.563 138.517C117.143 139.155 117.433 140.072 117.433 141.267C117.433 142.229 117.273 143.108 116.954 143.903C116.635 144.692 116.244 145.327 115.78 145.808C115.316 146.289 114.846 146.643 114.37 146.869C113.895 147.096 113.408 147.209 112.909 147.209C111.801 147.209 110.943 146.646 110.334 145.521L109.29 150.541H107.715ZM110.829 143.224C110.829 143.914 110.879 144.393 110.977 144.66C111.122 145.037 111.36 145.341 111.691 145.573C112.021 145.805 112.404 145.921 112.839 145.921C113.744 145.921 114.475 145.414 115.032 144.399C115.588 143.378 115.867 142.337 115.867 141.275C115.867 140.492 115.678 139.889 115.301 139.466C114.93 139.037 114.466 138.822 113.909 138.822C113.509 138.822 113.138 138.929 112.796 139.144C112.453 139.353 112.134 139.669 111.839 140.092C111.549 140.51 111.308 141.023 111.117 141.632C110.925 142.241 110.829 142.772 110.829 143.224ZM32.8686 157.761H40.2375L38.2887 167H36.7227L38.4192 159.031H34.1475L32.451 167H30.8937L32.8686 157.761ZM47.5368 163.859L49.068 164.016C48.8476 164.776 48.3401 165.498 47.5455 166.182C46.7567 166.867 45.8142 167.209 44.718 167.209C44.0336 167.209 43.4043 167.052 42.8301 166.739C42.2617 166.42 41.8267 165.959 41.5251 165.356C41.2293 164.752 41.0814 164.065 41.0814 163.294C41.0814 162.285 41.3134 161.307 41.7774 160.362C42.2472 159.411 42.8533 158.706 43.5957 158.248C44.3381 157.784 45.1414 157.552 46.0056 157.552C47.1076 157.552 47.9863 157.894 48.6417 158.578C49.3029 159.263 49.6335 160.197 49.6335 161.38C49.6335 161.832 49.5929 162.296 49.5117 162.772H42.7083C42.6851 162.952 42.6735 163.114 42.6735 163.259C42.6735 164.123 42.8707 164.784 43.2651 165.243C43.6653 165.695 44.1525 165.921 44.7267 165.921C45.2661 165.921 45.7968 165.744 46.3188 165.39C46.8408 165.037 47.2468 164.526 47.5368 163.859ZM42.9606 161.571H48.1458C48.1516 161.409 48.1545 161.293 48.1545 161.223C48.1545 160.434 47.9573 159.831 47.5629 159.414C47.1685 158.99 46.661 158.778 46.0404 158.778C45.3676 158.778 44.7528 159.01 44.196 159.474C43.645 159.938 43.2332 160.637 42.9606 161.571ZM49.8945 170.541L52.5654 157.761H54.0183L53.7486 159.048C54.288 158.486 54.7694 158.097 55.1928 157.882C55.622 157.662 56.0744 157.552 56.55 157.552C57.4317 157.552 58.1625 157.874 58.7425 158.517C59.3225 159.155 59.6125 160.072 59.6125 161.267C59.6125 162.229 59.453 163.108 59.134 163.903C58.815 164.692 58.4235 165.327 57.9595 165.808C57.4955 166.289 57.0256 166.643 56.55 166.869C56.0744 167.096 55.5872 167.209 55.0884 167.209C53.9806 167.209 53.1222 166.646 52.5132 165.521L51.4692 170.541H49.8945ZM53.0091 163.224C53.0091 163.914 53.0584 164.393 53.157 164.66C53.302 165.037 53.5398 165.341 53.8704 165.573C54.201 165.805 54.5838 165.921 55.0188 165.921C55.9236 165.921 56.6544 165.414 57.2113 164.399C57.7681 163.378 58.0465 162.337 58.0465 161.275C58.0465 160.492 57.858 159.889 57.481 159.466C57.1097 159.037 56.6457 158.822 56.0889 158.822C55.6887 158.822 55.3175 158.929 54.9753 159.144C54.6331 159.353 54.3141 159.669 54.0183 160.092C53.7283 160.51 53.4876 161.023 53.2962 161.632C53.1048 162.241 53.0091 162.772 53.0091 163.224ZM66.7465 162.163C67.3323 162.366 67.7702 162.647 68.0602 163.007C68.3502 163.36 68.4952 163.793 68.4952 164.303C68.4952 165.011 68.182 165.672 67.5556 166.287C66.9292 166.901 66.007 167.209 64.789 167.209C63.8726 167.209 63.1476 167.055 62.614 166.748C62.0804 166.44 61.6541 166.002 61.3351 165.434C61.0219 164.86 60.8653 164.222 60.8653 163.52C60.8653 161.879 61.338 160.475 62.2834 159.309C63.2288 158.138 64.5019 157.552 66.1027 157.552C67.0655 157.552 67.7992 157.775 68.3038 158.222C68.8084 158.662 69.0607 159.205 69.0607 159.849C69.0607 160.434 68.8664 160.922 68.4778 161.31C68.095 161.693 67.5179 161.977 66.7465 162.163ZM62.7793 161.51C63.2027 161.545 63.5681 161.562 63.8755 161.562C65.0703 161.562 65.9635 161.432 66.5551 161.171C67.1525 160.904 67.4512 160.51 67.4512 159.988C67.4512 159.646 67.3207 159.361 67.0597 159.135C66.8045 158.909 66.4681 158.796 66.0505 158.796C65.3313 158.796 64.6672 159.039 64.0582 159.527C63.4492 160.008 63.0229 160.669 62.7793 161.51ZM62.527 162.737C62.4864 162.986 62.4661 163.233 62.4661 163.476C62.4661 164.207 62.6749 164.808 63.0925 165.277C63.5101 165.741 64.1104 165.973 64.8934 165.973C65.5024 165.973 65.9867 165.814 66.3463 165.495C66.7117 165.17 66.8944 164.776 66.8944 164.312C66.8944 163.674 66.6421 163.25 66.1375 163.041C65.6329 162.833 64.7078 162.728 63.3622 162.728C63.2346 162.728 62.9562 162.731 62.527 162.737ZM69.7741 163.494C69.7741 161.69 70.3048 160.197 71.3662 159.013C72.242 158.039 73.3904 157.552 74.8114 157.552C75.925 157.552 76.8211 157.9 77.4997 158.596C78.1841 159.292 78.5263 160.231 78.5263 161.415C78.5263 162.476 78.3117 163.465 77.8825 164.381C77.4533 165.292 76.8414 165.991 76.0468 166.478C75.258 166.965 74.4257 167.209 73.5499 167.209C72.8307 167.209 72.1753 167.055 71.5837 166.748C70.9979 166.44 70.5484 166.005 70.2352 165.443C69.9278 164.88 69.7741 164.23 69.7741 163.494ZM71.3488 163.337C71.3488 164.207 71.5576 164.868 71.9752 165.321C72.3928 165.767 72.9235 165.991 73.5673 165.991C73.9037 165.991 74.2372 165.924 74.5678 165.791C74.8984 165.651 75.2058 165.443 75.49 165.164C75.7742 164.886 76.0149 164.57 76.2121 164.216C76.4151 163.856 76.5775 163.471 76.6993 163.059C76.8791 162.485 76.969 161.934 76.969 161.406C76.969 160.571 76.7573 159.924 76.3339 159.466C75.9163 159.002 75.3885 158.77 74.7505 158.77C74.2575 158.77 73.808 158.889 73.402 159.126C72.996 159.358 72.6277 159.701 72.2971 160.153C71.9723 160.605 71.7316 161.133 71.575 161.736C71.4242 162.334 71.3488 162.867 71.3488 163.337ZM85.7212 165.33C84.6134 166.582 83.4795 167.209 82.3195 167.209C81.6061 167.209 81.029 167.006 80.5882 166.6C80.1532 166.188 79.9357 165.686 79.9357 165.095C79.9357 164.706 80.0343 164.039 80.2315 163.094L81.3451 157.761H82.9198L81.6844 163.668C81.58 164.161 81.5278 164.544 81.5278 164.816C81.5278 165.164 81.6322 165.437 81.841 165.634C82.0556 165.825 82.3688 165.921 82.7806 165.921C83.2214 165.921 83.6506 165.814 84.0682 165.599C84.4916 165.385 84.8541 165.095 85.1557 164.729C85.4631 164.364 85.7125 163.932 85.9039 163.433C86.0315 163.114 86.1794 162.554 86.3476 161.754L87.1828 157.761H88.7575L86.8261 167H85.3732L85.7212 165.33ZM82.8676 154.15H83.8942C83.958 154.573 84.1001 154.884 84.3205 155.081C84.5409 155.272 84.8512 155.368 85.2514 155.368C85.669 155.368 86.0286 155.261 86.3302 155.046C86.6376 154.832 86.8725 154.533 87.0349 154.15H88.0789C87.8817 154.846 87.5221 155.397 87.0001 155.803C86.4839 156.209 85.8836 156.412 85.1992 156.412C84.5264 156.412 83.9783 156.209 83.5549 155.803C83.1315 155.391 82.9024 154.84 82.8676 154.15ZM96.2221 157.761H103.591L101.642 167H100.076L101.773 159.031H97.501L95.8045 167H94.2472L96.2221 157.761ZM104.383 163.494C104.383 161.69 104.913 160.197 105.975 159.013C106.851 158.039 107.999 157.552 109.42 157.552C110.534 157.552 111.43 157.9 112.108 158.596C112.793 159.292 113.135 160.231 113.135 161.415C113.135 162.476 112.92 163.465 112.491 164.381C112.062 165.292 111.45 165.991 110.655 166.478C109.867 166.965 109.034 167.209 108.159 167.209C107.439 167.209 106.784 167.055 106.192 166.748C105.607 166.44 105.157 166.005 104.844 165.443C104.536 164.88 104.383 164.23 104.383 163.494ZM105.957 163.337C105.957 164.207 106.166 164.868 106.584 165.321C107.001 165.767 107.532 165.991 108.176 165.991C108.512 165.991 108.846 165.924 109.176 165.791C109.507 165.651 109.814 165.443 110.099 165.164C110.383 164.886 110.624 164.57 110.821 164.216C111.024 163.856 111.186 163.471 111.308 163.059C111.488 162.485 111.578 161.934 111.578 161.406C111.578 160.571 111.366 159.924 110.943 159.466C110.525 159.002 109.997 158.77 109.359 158.77C108.866 158.77 108.417 158.889 108.011 159.126C107.605 159.358 107.236 159.701 106.906 160.153C106.581 160.605 106.34 161.133 106.184 161.736C106.033 162.334 105.957 162.867 105.957 163.337ZM115.962 157.761H118.303L119.173 165.129L123.462 157.761H125.759L123.784 167H122.226L123.836 159.553L119.503 167H118.103L117.189 159.266L115.536 167H113.979L115.962 157.761ZM126.516 163.494C126.516 161.69 127.046 160.197 128.108 159.013C128.983 158.039 130.132 157.552 131.553 157.552C132.666 157.552 133.563 157.9 134.241 158.596C134.926 159.292 135.268 160.231 135.268 161.415C135.268 162.476 135.053 163.465 134.624 164.381C134.195 165.292 133.583 165.991 132.788 166.478C131.999 166.965 131.167 167.209 130.291 167.209C129.572 167.209 128.917 167.055 128.325 166.748C127.739 166.44 127.29 166.005 126.977 165.443C126.669 164.88 126.516 164.23 126.516 163.494ZM128.09 163.337C128.09 164.207 128.299 164.868 128.717 165.321C129.134 165.767 129.665 165.991 130.309 165.991C130.645 165.991 130.979 165.924 131.309 165.791C131.64 165.651 131.947 165.443 132.231 165.164C132.516 164.886 132.756 164.57 132.954 164.216C133.157 163.856 133.319 163.471 133.441 163.059C133.621 162.485 133.71 161.934 133.71 161.406C133.71 160.571 133.499 159.924 133.075 159.466C132.658 159.002 132.13 158.77 131.492 158.77C130.999 158.77 130.549 158.889 130.143 159.126C129.737 159.358 129.369 159.701 129.039 160.153C128.714 160.605 128.473 161.133 128.316 161.736C128.166 162.334 128.09 162.867 128.09 163.337ZM142.002 165.451C141.514 166.037 141.007 166.478 140.479 166.774C139.957 167.064 139.415 167.209 138.852 167.209C138.22 167.209 137.689 167.029 137.26 166.669C136.831 166.31 136.616 165.837 136.616 165.251C136.616 164.845 136.718 164.17 136.921 163.224L138.113 157.761H139.67L138.382 163.659C138.266 164.204 138.208 164.605 138.208 164.86C138.208 165.196 138.295 165.448 138.469 165.617C138.643 165.785 138.904 165.869 139.252 165.869C139.786 165.869 140.276 165.718 140.723 165.417C141.175 165.109 141.532 164.75 141.793 164.338C142.06 163.92 142.286 163.294 142.471 162.459L143.507 157.761H145.064L143.742 163.79C143.643 164.254 143.594 164.628 143.594 164.912C143.594 165.231 143.675 165.472 143.837 165.634C144.005 165.791 144.252 165.869 144.577 165.869C145.279 165.869 145.951 165.57 146.595 164.973C147.239 164.375 147.68 163.468 147.918 162.25C147.929 162.192 147.941 162.128 147.952 162.058L148.909 157.761H150.458L148.909 164.773C148.863 164.982 148.84 165.208 148.84 165.451C148.84 165.753 149.031 165.904 149.414 165.904H150.458L149.623 169.688H148.309L148.909 167.165C147.836 167.165 147.3 166.727 147.3 165.852C147.3 165.765 147.303 165.651 147.309 165.512C146.694 166.365 146.117 166.861 145.577 167C145.038 167.139 144.562 167.209 144.15 167.209C143.582 167.209 143.089 167.035 142.671 166.687C142.26 166.333 142.036 165.921 142.002 165.451ZM157.635 165.33C156.528 166.582 155.394 167.209 154.234 167.209C153.52 167.209 152.943 167.006 152.502 166.6C152.067 166.188 151.85 165.686 151.85 165.095C151.85 164.706 151.949 164.039 152.146 163.094L153.259 157.761H154.834L153.599 163.668C153.494 164.161 153.442 164.544 153.442 164.816C153.442 165.164 153.546 165.437 153.755 165.634C153.97 165.825 154.283 165.921 154.695 165.921C155.136 165.921 155.565 165.814 155.982 165.599C156.406 165.385 156.768 165.095 157.07 164.729C157.377 164.364 157.627 163.932 157.818 163.433C157.946 163.114 158.094 162.554 158.262 161.754L159.097 157.761H160.672L158.74 167H157.287L157.635 165.33Z" fill="white"/>
<rect x="0.75" y="123.75" width="189.5" height="54.5" stroke="white" stroke-width="1.5"/>
<line x1="190.25" y1="125" x2="190.25" y2="1" stroke="white" stroke-width="1.5"/>
<line x1="267.25" y1="125" x2="267.25" y2="1" stroke="white" stroke-width="1.5"/>
<path d="M189.586 1.25L268 1" stroke="white" stroke-width="1.5"/>
<line x1="267" y1="124.25" x2="338" y2="124.25" stroke="white" stroke-width="1.5"/>
<rect x="328" y="116" width="15" height="15" fill="white"/>
</svg>
