<svg width="433" height="42" viewBox="0 0 433 42" fill="none" xmlns="http://www.w3.org/2000/svg">
<path d="M281.87 26.4939C281.87 24.6901 282.401 23.1966 283.462 22.0134C284.338 21.039 285.486 20.5518 286.907 20.5518C288.021 20.5518 288.917 20.8998 289.596 21.5958C290.28 22.2918 290.622 23.2314 290.622 24.4146C290.622 25.476 290.408 26.4649 289.978 27.3813C289.549 28.2919 288.937 28.9908 288.143 29.478C287.354 29.9652 286.522 30.2088 285.646 30.2088C284.927 30.2088 284.271 30.0551 283.68 29.7477C283.094 29.4403 282.644 29.0053 282.331 28.4427C282.024 27.8801 281.87 27.2305 281.87 26.4939ZM283.445 26.3373C283.445 27.2073 283.654 27.8685 284.071 28.3209C284.489 28.7675 285.019 28.9908 285.663 28.9908C286 28.9908 286.333 28.9241 286.664 28.7907C286.994 28.6515 287.302 28.4427 287.586 28.1643C287.87 27.8859 288.111 27.5698 288.308 27.216C288.511 26.8564 288.673 26.4707 288.795 26.0589C288.975 25.4847 289.065 24.9337 289.065 24.4059C289.065 23.5707 288.853 22.924 288.43 22.4658C288.012 22.0018 287.484 21.7698 286.846 21.7698C286.353 21.7698 285.904 21.8887 285.498 22.1265C285.092 22.3585 284.724 22.7007 284.393 23.1531C284.068 23.6055 283.828 24.1333 283.671 24.7365C283.52 25.3339 283.445 25.8675 283.445 26.3373ZM293.989 23.0574L292.554 22.953C293.197 21.3522 294.384 20.5518 296.112 20.5518C297.214 20.5518 298.049 20.7954 298.618 21.2826C299.192 21.7698 299.479 22.3701 299.479 23.0835C299.479 23.5649 299.345 23.9854 299.079 24.345C298.812 24.6988 298.464 24.9772 298.035 25.1802C297.605 25.3774 296.921 25.592 295.981 25.824C294.862 26.0908 294.114 26.3518 293.737 26.607C293.36 26.8622 293.171 27.1957 293.171 27.6075C293.171 28.0309 293.386 28.3673 293.815 28.6167C294.244 28.8661 294.755 28.9908 295.346 28.9908C296.083 28.9908 296.625 28.8487 296.973 28.5645C297.327 28.2745 297.632 27.796 297.887 27.129L299.218 27.2334C298.661 29.217 297.333 30.2088 295.233 30.2088C294.009 30.2088 293.096 29.9652 292.493 29.478C291.895 28.9908 291.597 28.3963 291.597 27.6945C291.597 27.1957 291.739 26.7375 292.023 26.3199C292.307 25.9023 292.661 25.5862 293.084 25.3716C293.508 25.157 294.212 24.9366 295.198 24.7104C296.48 24.4204 297.255 24.1362 297.521 23.8578C297.782 23.5794 297.913 23.3039 297.913 23.0313C297.913 22.7065 297.759 22.4223 297.452 22.1787C297.144 21.9351 296.683 21.8133 296.068 21.8133C295.488 21.8133 295.062 21.9061 294.79 22.0917C294.523 22.2715 294.256 22.5934 293.989 23.0574ZM302.228 20.7606H303.785L302.95 24.6147H307.239L308.057 20.7606H309.597L307.648 30H306.082L306.97 25.8675H302.698L301.81 30H300.253L302.228 20.7606ZM316.896 26.8593L318.427 27.0159C318.207 27.7757 317.7 28.4978 316.905 29.1822C316.116 29.8666 315.174 30.2088 314.077 30.2088C313.393 30.2088 312.764 30.0522 312.19 29.739C311.621 29.42 311.186 28.9589 310.885 28.3557C310.589 27.7525 310.441 27.0652 310.441 26.2938C310.441 25.2846 310.673 24.3073 311.137 23.3619C311.607 22.4107 312.213 21.706 312.955 21.2478C313.698 20.7838 314.501 20.5518 315.365 20.5518C316.467 20.5518 317.346 20.894 318.001 21.5784C318.662 22.2628 318.993 23.1966 318.993 24.3798C318.993 24.8322 318.952 25.2962 318.871 25.7718H312.068C312.045 25.9516 312.033 26.114 312.033 26.259C312.033 27.1232 312.23 27.7844 312.625 28.2426C313.025 28.695 313.512 28.9212 314.086 28.9212C314.626 28.9212 315.156 28.7443 315.678 28.3905C316.2 28.0367 316.606 27.5263 316.896 26.8593ZM312.32 24.5712H317.505C317.511 24.4088 317.514 24.2928 317.514 24.2232C317.514 23.4344 317.317 22.8312 316.922 22.4136C316.528 21.9902 316.02 21.7785 315.4 21.7785C314.727 21.7785 314.112 22.0105 313.555 22.4745C313.004 22.9385 312.593 23.6374 312.32 24.5712ZM319.811 30L321.742 20.7606H323.317L322.995 22.2831C323.581 21.6277 324.103 21.1753 324.561 20.9259C325.025 20.6765 325.527 20.5518 326.066 20.5518C326.64 20.5518 327.119 20.7055 327.502 21.0129C327.89 21.3145 328.145 21.7379 328.267 22.2831C328.737 21.7031 329.23 21.271 329.746 20.9868C330.268 20.6968 330.816 20.5518 331.39 20.5518C332.162 20.5518 332.739 20.7345 333.122 21.0999C333.51 21.4653 333.705 21.9786 333.705 22.6398C333.705 22.924 333.638 23.3938 333.505 24.0492L332.26 30H330.686L331.956 23.8926C332.066 23.3938 332.121 23.0371 332.121 22.8225C332.121 22.5209 332.026 22.2831 331.834 22.1091C331.643 21.9351 331.373 21.8481 331.025 21.8481C330.555 21.8481 330.077 21.9902 329.59 22.2744C329.102 22.5586 328.722 22.9327 328.45 23.3967C328.183 23.8549 327.948 24.5625 327.745 25.5195L326.806 30H325.231L326.536 23.7621C326.629 23.3387 326.675 23.0371 326.675 22.8573C326.675 22.5557 326.579 22.3121 326.388 22.1265C326.202 21.9409 325.959 21.8481 325.657 21.8481C325.211 21.8481 324.741 21.9902 324.248 22.2744C323.761 22.5586 323.363 22.9559 323.056 23.4663C322.748 23.9709 322.496 24.693 322.299 25.6326L321.385 30H319.811ZM333.67 33.567L333.766 32.088C334.09 32.1808 334.406 32.2272 334.714 32.2272C335.033 32.2272 335.291 32.1547 335.488 32.0097C335.743 31.8183 336.022 31.4587 336.323 30.9309L336.828 30.0261L335.288 20.7606H336.837L337.533 25.4325C337.672 26.3547 337.791 27.2769 337.889 28.1991L342.022 20.7606H343.666L337.776 31.2267C337.208 32.2475 336.703 32.9232 336.262 33.2538C335.822 33.5844 335.314 33.7497 334.74 33.7497C334.375 33.7497 334.018 33.6888 333.67 33.567ZM345.128 20.7606H346.685L345.397 26.6592C345.281 27.2044 345.223 27.6046 345.223 27.8598C345.223 28.1962 345.31 28.4485 345.484 28.6167C345.658 28.7849 345.919 28.869 346.267 28.869C346.801 28.869 347.291 28.7182 347.738 28.4166C348.19 28.1092 348.547 27.7496 348.808 27.3378C349.075 26.9202 349.301 26.2938 349.486 25.4586L350.522 20.7606H352.079L350.757 26.7897C350.658 27.2537 350.609 27.6133 350.609 27.8685C350.609 28.1991 350.69 28.4485 350.852 28.6167C351.021 28.7849 351.267 28.869 351.592 28.869C352.27 28.869 352.938 28.5761 353.593 27.9903C354.248 27.4045 354.695 26.491 354.933 25.2498C354.944 25.1918 354.956 25.128 354.968 25.0584L355.925 20.7606H357.464L355.455 30H353.906L354.237 28.4514C353.373 29.623 352.369 30.2088 351.226 30.2088C350.594 30.2088 350.075 30.029 349.669 29.6694C349.263 29.304 349.046 28.898 349.017 28.4514C348.529 29.0372 348.022 29.478 347.494 29.7738C346.972 30.0638 346.43 30.2088 345.867 30.2088C345.235 30.2088 344.704 30.029 344.275 29.6694C343.846 29.3098 343.631 28.8371 343.631 28.2513C343.631 27.8453 343.733 27.1696 343.936 26.2242L345.128 20.7606ZM364.268 28.3296C363.16 29.5824 362.026 30.2088 360.866 30.2088C360.153 30.2088 359.576 30.0058 359.135 29.5998C358.7 29.188 358.482 28.6863 358.482 28.0947C358.482 27.7061 358.581 27.0391 358.778 26.0937L359.892 20.7606H361.466L360.231 26.6679C360.127 27.1609 360.074 27.5437 360.074 27.8163C360.074 28.1643 360.179 28.4369 360.388 28.6341C360.602 28.8255 360.915 28.9212 361.327 28.9212C361.768 28.9212 362.197 28.8139 362.615 28.5993C363.038 28.3847 363.401 28.0947 363.702 27.7293C364.01 27.3639 364.259 26.9318 364.451 26.433C364.578 26.114 364.726 25.5543 364.894 24.7539L365.729 20.7606H367.304L365.373 30H363.92L364.268 28.3296ZM367.87 30L369.801 20.7606H371.376L371.054 22.2831C371.64 21.6277 372.162 21.1753 372.62 20.9259C373.084 20.6765 373.586 20.5518 374.125 20.5518C374.699 20.5518 375.178 20.7055 375.56 21.0129C375.949 21.3145 376.204 21.7379 376.326 22.2831C376.796 21.7031 377.289 21.271 377.805 20.9868C378.327 20.6968 378.875 20.5518 379.449 20.5518C380.221 20.5518 380.798 20.7345 381.181 21.0999C381.569 21.4653 381.764 21.9786 381.764 22.6398C381.764 22.924 381.697 23.3938 381.563 24.0492L380.319 30H378.745L380.015 23.8926C380.125 23.3938 380.18 23.0371 380.18 22.8225C380.18 22.5209 380.084 22.2831 379.893 22.1091C379.702 21.9351 379.432 21.8481 379.084 21.8481C378.614 21.8481 378.136 21.9902 377.648 22.2744C377.161 22.5586 376.781 22.9327 376.509 23.3967C376.242 23.8549 376.007 24.5625 375.804 25.5195L374.864 30H373.29L374.595 23.7621C374.688 23.3387 374.734 23.0371 374.734 22.8573C374.734 22.5557 374.638 22.3121 374.447 22.1265C374.261 21.9409 374.018 21.8481 373.716 21.8481C373.269 21.8481 372.8 21.9902 372.307 22.2744C371.819 22.5586 371.422 22.9559 371.115 23.4663C370.807 23.9709 370.555 24.693 370.358 25.6326L369.444 30H367.87ZM389.507 26.8593L391.038 27.0159C390.817 27.7757 390.31 28.4978 389.515 29.1822C388.726 29.8666 387.784 30.2088 386.688 30.2088C386.003 30.2088 385.374 30.0522 384.8 29.739C384.231 29.42 383.796 28.9589 383.495 28.3557C383.199 27.7525 383.051 27.0652 383.051 26.2938C383.051 25.2846 383.283 24.3073 383.747 23.3619C384.217 22.4107 384.823 21.706 385.565 21.2478C386.308 20.7838 387.111 20.5518 387.975 20.5518C389.077 20.5518 389.956 20.894 390.611 21.5784C391.273 22.2628 391.603 23.1966 391.603 24.3798C391.603 24.8322 391.563 25.2962 391.481 25.7718H384.678C384.655 25.9516 384.643 26.114 384.643 26.259C384.643 27.1232 384.84 27.7844 385.235 28.2426C385.635 28.695 386.122 28.9212 386.696 28.9212C387.236 28.9212 387.767 28.7443 388.289 28.3905C388.811 28.0367 389.217 27.5263 389.507 26.8593ZM384.93 24.5712H390.116C390.121 24.4088 390.124 24.2928 390.124 24.2232C390.124 23.4344 389.927 22.8312 389.533 22.4136C389.138 21.9902 388.631 21.7785 388.01 21.7785C387.337 21.7785 386.723 22.0105 386.166 22.4745C385.615 22.9385 385.203 23.6374 384.93 24.5712ZM394.648 20.7606H401.608L399.642 30H398.076L399.799 22.0743H395.918L394.727 27.5814C394.524 28.5268 394.251 29.188 393.909 29.565C393.567 29.9362 393.094 30.1218 392.491 30.1218C392.143 30.1218 391.682 30.0812 391.107 30L391.394 28.695C391.638 28.7124 391.858 28.7211 392.056 28.7211C392.456 28.7211 392.717 28.6225 392.839 28.4253C392.966 28.2223 393.146 27.6104 393.378 26.5896L394.648 20.7606ZM404.053 20.7606H405.628L404.836 24.3363H406.515C407.588 24.3363 408.354 24.4146 408.812 24.5712C409.27 24.7278 409.63 25.0149 409.891 25.4325C410.152 25.8443 410.282 26.3054 410.282 26.8158C410.282 27.4306 410.102 28.0193 409.743 28.5819C409.389 29.1445 408.951 29.5215 408.429 29.7129C407.907 29.9043 407.095 30 405.993 30H402.061L404.053 20.7606ZM403.879 28.7472H405.889C406.677 28.7472 407.231 28.695 407.55 28.5906C407.875 28.4862 408.148 28.2977 408.368 28.0251C408.589 27.7467 408.699 27.4103 408.699 27.0159C408.699 26.6679 408.6 26.3721 408.403 26.1285C408.212 25.8849 407.988 25.737 407.733 25.6848C407.484 25.6268 407.023 25.5978 406.35 25.5978H404.558L403.879 28.7472Z" fill="white"/>
<rect x="-0.75" y="0.75" width="172.5" height="34.5" transform="matrix(-1 0 0 1 431.5 6)" stroke="white" stroke-width="1.5"/>
<line x1="368" y1="6.75" x2="13" y2="6.74997" stroke="white" stroke-width="1.5"/>
<rect width="15" height="15" fill="white"/>
</svg>
