<svg width="438" height="159" viewBox="0 0 438 159" fill="none" xmlns="http://www.w3.org/2000/svg">
<path d="M281.007 111.633L282.582 111.798C282.188 112.953 281.625 113.811 280.894 114.374C280.169 114.93 279.343 115.209 278.415 115.209C277.411 115.209 276.596 114.884 275.97 114.234C275.349 113.585 275.039 112.677 275.039 111.511C275.039 110.502 275.239 109.51 275.639 108.536C276.04 107.561 276.611 106.822 277.353 106.317C278.101 105.807 278.954 105.552 279.911 105.552C280.903 105.552 281.689 105.833 282.269 106.396C282.849 106.952 283.139 107.692 283.139 108.614L281.59 108.719C281.584 108.133 281.413 107.675 281.077 107.344C280.746 107.013 280.308 106.848 279.763 106.848C279.131 106.848 278.583 107.048 278.119 107.448C277.655 107.849 277.289 108.458 277.023 109.275C276.762 110.087 276.631 110.87 276.631 111.624C276.631 112.413 276.805 113.005 277.153 113.399C277.501 113.794 277.93 113.991 278.441 113.991C278.951 113.991 279.438 113.796 279.902 113.408C280.372 113.019 280.74 112.428 281.007 111.633ZM285.47 105.761H292.839L290.89 115H289.324L291.021 107.031H286.749L285.053 115H283.495L285.47 105.761ZM299.582 113.852C299.037 114.321 298.512 114.666 298.007 114.887C297.502 115.102 296.963 115.209 296.389 115.209C295.536 115.209 294.849 114.959 294.327 114.461C293.805 113.956 293.544 113.312 293.544 112.529C293.544 112.013 293.66 111.558 293.892 111.163C294.13 110.763 294.443 110.444 294.832 110.206C295.22 109.963 295.696 109.789 296.258 109.684C296.612 109.615 297.282 109.56 298.268 109.519C299.26 109.478 299.97 109.374 300.4 109.206C300.521 108.777 300.582 108.42 300.582 108.136C300.582 107.77 300.449 107.483 300.182 107.274C299.817 106.984 299.283 106.839 298.581 106.839C297.92 106.839 297.378 106.987 296.954 107.283C296.537 107.573 296.232 107.988 296.041 108.527L294.449 108.388C294.774 107.472 295.287 106.77 295.989 106.283C296.696 105.795 297.587 105.552 298.66 105.552C299.802 105.552 300.707 105.824 301.374 106.37C301.884 106.776 302.14 107.303 302.14 107.953C302.14 108.446 302.067 109.017 301.922 109.667L301.409 111.964C301.246 112.694 301.165 113.289 301.165 113.747C301.165 114.037 301.229 114.455 301.357 115H299.764C299.677 114.698 299.617 114.316 299.582 113.852ZM300.165 110.319C299.944 110.406 299.706 110.473 299.451 110.519C299.202 110.566 298.781 110.615 298.19 110.667C297.273 110.749 296.627 110.853 296.25 110.981C295.873 111.102 295.588 111.3 295.397 111.572C295.206 111.845 295.11 112.146 295.11 112.477C295.11 112.918 295.261 113.28 295.562 113.564C295.87 113.849 296.305 113.991 296.867 113.991C297.389 113.991 297.891 113.854 298.372 113.582C298.854 113.303 299.234 112.918 299.512 112.425C299.791 111.932 300.008 111.23 300.165 110.319ZM309.648 111.633L311.222 111.798C310.828 112.953 310.265 113.811 309.535 114.374C308.81 114.93 307.983 115.209 307.055 115.209C306.052 115.209 305.237 114.884 304.61 114.234C303.99 113.585 303.679 112.677 303.679 111.511C303.679 110.502 303.88 109.51 304.28 108.536C304.68 107.561 305.251 106.822 305.994 106.317C306.742 105.807 307.594 105.552 308.551 105.552C309.543 105.552 310.329 105.833 310.909 106.396C311.489 106.952 311.779 107.692 311.779 108.614L310.231 108.719C310.225 108.133 310.054 107.675 309.717 107.344C309.387 107.013 308.949 106.848 308.404 106.848C307.771 106.848 307.223 107.048 306.759 107.448C306.295 107.849 305.93 108.458 305.663 109.275C305.402 110.087 305.272 110.87 305.272 111.624C305.272 112.413 305.446 113.005 305.794 113.399C306.142 113.794 306.571 113.991 307.081 113.991C307.592 113.991 308.079 113.796 308.543 113.408C309.013 113.019 309.381 112.428 309.648 111.633ZM318.409 113.852C317.863 114.321 317.338 114.666 316.834 114.887C316.329 115.102 315.79 115.209 315.216 115.209C314.363 115.209 313.676 114.959 313.154 114.461C312.632 113.956 312.371 113.312 312.371 112.529C312.371 112.013 312.487 111.558 312.719 111.163C312.957 110.763 313.27 110.444 313.658 110.206C314.047 109.963 314.523 109.789 315.085 109.684C315.439 109.615 316.109 109.56 317.095 109.519C318.087 109.478 318.797 109.374 319.226 109.206C319.348 108.777 319.409 108.42 319.409 108.136C319.409 107.77 319.276 107.483 319.009 107.274C318.643 106.984 318.11 106.839 317.408 106.839C316.747 106.839 316.205 106.987 315.781 107.283C315.364 107.573 315.059 107.988 314.868 108.527L313.276 108.388C313.6 107.472 314.114 106.77 314.815 106.283C315.523 105.795 316.413 105.552 317.486 105.552C318.629 105.552 319.534 105.824 320.201 106.37C320.711 106.776 320.966 107.303 320.966 107.953C320.966 108.446 320.894 109.017 320.749 109.667L320.236 111.964C320.073 112.694 319.992 113.289 319.992 113.747C319.992 114.037 320.056 114.455 320.183 115H318.591C318.504 114.698 318.443 114.316 318.409 113.852ZM318.991 110.319C318.771 110.406 318.533 110.473 318.278 110.519C318.029 110.566 317.608 110.615 317.017 110.667C316.1 110.749 315.453 110.853 315.076 110.981C314.699 111.102 314.415 111.3 314.224 111.572C314.032 111.845 313.937 112.146 313.937 112.477C313.937 112.918 314.088 113.28 314.389 113.564C314.697 113.849 315.132 113.991 315.694 113.991C316.216 113.991 316.718 113.854 317.199 113.582C317.681 113.303 318.061 112.918 318.339 112.425C318.617 111.932 318.835 111.23 318.991 110.319ZM322.089 115L324.02 105.761H325.595L325.273 107.283C325.859 106.628 326.381 106.175 326.839 105.926C327.303 105.676 327.805 105.552 328.344 105.552C328.918 105.552 329.397 105.705 329.779 106.013C330.168 106.314 330.423 106.738 330.545 107.283C331.015 106.703 331.508 106.271 332.024 105.987C332.546 105.697 333.094 105.552 333.668 105.552C334.44 105.552 335.017 105.734 335.4 106.1C335.788 106.465 335.983 106.979 335.983 107.64C335.983 107.924 335.916 108.394 335.782 109.049L334.538 115H332.964L334.234 108.893C334.344 108.394 334.399 108.037 334.399 107.822C334.399 107.521 334.303 107.283 334.112 107.109C333.921 106.935 333.651 106.848 333.303 106.848C332.833 106.848 332.355 106.99 331.867 107.274C331.38 107.559 331 107.933 330.728 108.397C330.461 108.855 330.226 109.562 330.023 110.519L329.083 115H327.509L328.814 108.762C328.907 108.339 328.953 108.037 328.953 107.857C328.953 107.556 328.857 107.312 328.666 107.126C328.48 106.941 328.237 106.848 327.935 106.848C327.488 106.848 327.019 106.99 326.526 107.274C326.038 107.559 325.641 107.956 325.334 108.466C325.026 108.971 324.774 109.693 324.577 110.633L323.663 115H322.089ZM343.726 111.859L345.257 112.016C345.036 112.776 344.529 113.498 343.734 114.182C342.946 114.867 342.003 115.209 340.907 115.209C340.222 115.209 339.593 115.052 339.019 114.739C338.451 114.42 338.016 113.959 337.714 113.356C337.418 112.752 337.27 112.065 337.27 111.294C337.27 110.285 337.502 109.307 337.966 108.362C338.436 107.411 339.042 106.706 339.785 106.248C340.527 105.784 341.33 105.552 342.194 105.552C343.296 105.552 344.175 105.894 344.831 106.578C345.492 107.263 345.822 108.197 345.822 109.38C345.822 109.832 345.782 110.296 345.701 110.772H338.897C338.874 110.952 338.862 111.114 338.862 111.259C338.862 112.123 339.06 112.784 339.454 113.243C339.854 113.695 340.341 113.921 340.916 113.921C341.455 113.921 341.986 113.744 342.508 113.39C343.03 113.037 343.436 112.526 343.726 111.859ZM339.149 109.571H344.335C344.34 109.409 344.343 109.293 344.343 109.223C344.343 108.434 344.146 107.831 343.752 107.414C343.357 106.99 342.85 106.778 342.229 106.778C341.556 106.778 340.942 107.01 340.385 107.474C339.834 107.938 339.422 108.637 339.149 109.571ZM348.867 105.761H355.827L353.861 115H352.295L354.018 107.074H350.138L348.946 112.581C348.743 113.527 348.47 114.188 348.128 114.565C347.786 114.936 347.313 115.122 346.71 115.122C346.362 115.122 345.901 115.081 345.326 115L345.614 113.695C345.857 113.712 346.078 113.721 346.275 113.721C346.675 113.721 346.936 113.622 347.058 113.425C347.185 113.222 347.365 112.61 347.597 111.59L348.867 105.761ZM358.272 105.761H359.847L359.055 109.336H360.734C361.807 109.336 362.573 109.415 363.031 109.571C363.489 109.728 363.849 110.015 364.11 110.432C364.371 110.844 364.501 111.305 364.501 111.816C364.501 112.431 364.321 113.019 363.962 113.582C363.608 114.144 363.17 114.521 362.648 114.713C362.126 114.904 361.314 115 360.212 115H356.28L358.272 105.761ZM358.098 113.747H360.108C360.897 113.747 361.45 113.695 361.769 113.591C362.094 113.486 362.367 113.298 362.587 113.025C362.808 112.747 362.918 112.41 362.918 112.016C362.918 111.668 362.819 111.372 362.622 111.128C362.431 110.885 362.207 110.737 361.952 110.685C361.703 110.627 361.242 110.598 360.569 110.598H358.777L358.098 113.747ZM367.633 105.761H369.191L368.355 109.615H372.644L373.462 105.761H375.002L373.053 115H371.487L372.375 110.867H368.103L367.216 115H365.658L367.633 105.761ZM386.573 105.761H388.165L386.164 115H384.581L386.573 105.761ZM377.464 105.761H379.039L378.247 109.336H379.926C380.999 109.336 381.765 109.415 382.223 109.571C382.681 109.728 383.041 110.015 383.302 110.432C383.563 110.844 383.693 111.305 383.693 111.816C383.693 112.431 383.514 113.019 383.154 113.582C382.8 114.144 382.362 114.521 381.84 114.713C381.318 114.904 380.506 115 379.404 115H375.472L377.464 105.761ZM377.29 113.747H379.3C380.089 113.747 380.643 113.695 380.962 113.591C381.286 113.486 381.559 113.298 381.779 113.025C382 112.747 382.11 112.41 382.11 112.016C382.11 111.668 382.011 111.372 381.814 111.128C381.623 110.885 381.4 110.737 381.144 110.685C380.895 110.627 380.434 110.598 379.761 110.598H377.969L377.29 113.747ZM394.943 113.33C393.835 114.582 392.701 115.209 391.541 115.209C390.827 115.209 390.25 115.006 389.81 114.6C389.375 114.188 389.157 113.686 389.157 113.095C389.157 112.706 389.256 112.039 389.453 111.094L390.566 105.761H392.141L390.906 111.668C390.801 112.161 390.749 112.544 390.749 112.816C390.749 113.164 390.854 113.437 391.062 113.634C391.277 113.825 391.59 113.921 392.002 113.921C392.443 113.921 392.872 113.814 393.29 113.599C393.713 113.385 394.075 113.095 394.377 112.729C394.684 112.364 394.934 111.932 395.125 111.433C395.253 111.114 395.401 110.554 395.569 109.754L396.404 105.761H397.979L396.047 115H394.595L394.943 113.33ZM392.089 102.15H393.116C393.179 102.573 393.321 102.884 393.542 103.081C393.762 103.272 394.073 103.368 394.473 103.368C394.89 103.368 395.25 103.261 395.552 103.046C395.859 102.832 396.094 102.533 396.256 102.15H397.3C397.103 102.846 396.743 103.397 396.221 103.803C395.705 104.209 395.105 104.412 394.421 104.412C393.748 104.412 393.2 104.209 392.776 103.803C392.353 103.391 392.124 102.84 392.089 102.15ZM314.293 125.761H315.825L314.972 129.71L315.094 129.719C315.424 129.719 315.738 129.58 316.033 129.301C316.335 129.023 316.718 128.498 317.182 127.727C317.686 126.886 318.145 126.349 318.556 126.117C318.968 125.879 319.395 125.761 319.835 125.761C320.154 125.761 320.479 125.813 320.81 125.917L320.453 126.857C320.244 126.787 320.07 126.752 319.931 126.752C319.67 126.752 319.441 126.842 319.244 127.022C319.052 127.202 318.8 127.57 318.487 128.127C317.849 129.27 317.133 129.974 316.338 130.241C316.611 130.34 316.872 130.502 317.121 130.728C317.376 130.949 317.634 131.389 317.895 132.051L319.052 135H317.434L316.521 132.651C316.236 131.914 315.975 131.418 315.738 131.163C315.506 130.902 315.184 130.74 314.772 130.676L313.832 135H312.284L313.215 130.676C312.896 130.688 312.597 130.783 312.319 130.963C312.04 131.143 311.57 131.662 310.909 132.52L309.004 135H307.09L309.535 131.92C310.254 131.015 311.019 130.456 311.831 130.241C311.483 130.021 311.222 129.754 311.048 129.441C310.874 129.127 310.712 128.565 310.561 127.753C310.492 127.347 310.407 127.074 310.309 126.935C310.204 126.802 310.054 126.735 309.856 126.735C309.723 126.735 309.5 126.776 309.187 126.857L309.291 125.856C309.569 125.792 309.842 125.761 310.109 125.761C310.66 125.761 311.057 125.911 311.301 126.213C311.538 126.52 311.741 127.063 311.91 127.84C312.078 128.611 312.261 129.116 312.458 129.354C312.661 129.591 312.983 129.71 313.423 129.71L314.293 125.761ZM326.769 133.33C325.661 134.582 324.528 135.209 323.368 135.209C322.654 135.209 322.077 135.006 321.636 134.6C321.201 134.188 320.984 133.686 320.984 133.095C320.984 132.706 321.082 132.039 321.28 131.094L322.393 125.761H323.968L322.732 131.668C322.628 132.161 322.576 132.544 322.576 132.816C322.576 133.164 322.68 133.437 322.889 133.634C323.104 133.825 323.417 133.921 323.829 133.921C324.269 133.921 324.699 133.814 325.116 133.599C325.54 133.385 325.902 133.095 326.204 132.729C326.511 132.364 326.761 131.932 326.952 131.433C327.08 131.114 327.227 130.554 327.396 129.754L328.231 125.761H329.806L327.874 135H326.421L326.769 133.33ZM332.981 125.761H339.941L337.975 135H336.409L338.132 127.074H334.251L333.059 132.581C332.856 133.527 332.584 134.188 332.242 134.565C331.899 134.936 331.427 135.122 330.823 135.122C330.475 135.122 330.014 135.081 329.44 135L329.727 133.695C329.971 133.712 330.191 133.721 330.388 133.721C330.789 133.721 331.05 133.622 331.171 133.425C331.299 133.222 331.479 132.61 331.711 131.59L332.981 125.761ZM347.223 131.859L348.754 132.016C348.534 132.776 348.026 133.498 347.232 134.182C346.443 134.867 345.5 135.209 344.404 135.209C343.72 135.209 343.091 135.052 342.516 134.739C341.948 134.42 341.513 133.959 341.211 133.356C340.916 132.752 340.768 132.065 340.768 131.294C340.768 130.285 341 129.307 341.464 128.362C341.933 127.411 342.54 126.706 343.282 126.248C344.024 125.784 344.828 125.552 345.692 125.552C346.794 125.552 347.673 125.894 348.328 126.578C348.989 127.263 349.32 128.197 349.32 129.38C349.32 129.832 349.279 130.296 349.198 130.772H342.395C342.371 130.952 342.36 131.114 342.36 131.259C342.36 132.123 342.557 132.784 342.951 133.243C343.352 133.695 343.839 133.921 344.413 133.921C344.952 133.921 345.483 133.744 346.005 133.39C346.527 133.037 346.933 132.526 347.223 131.859ZM342.647 129.571H347.832C347.838 129.409 347.841 129.293 347.841 129.223C347.841 128.434 347.644 127.831 347.249 127.414C346.855 126.99 346.347 126.778 345.727 126.778C345.054 126.778 344.439 127.01 343.882 127.474C343.331 127.938 342.919 128.637 342.647 129.571ZM350.138 135L352.069 125.761H353.644L353.322 127.283C353.908 126.628 354.43 126.175 354.888 125.926C355.352 125.676 355.853 125.552 356.393 125.552C356.967 125.552 357.446 125.705 357.828 126.013C358.217 126.314 358.472 126.738 358.594 127.283C359.064 126.703 359.557 126.271 360.073 125.987C360.595 125.697 361.143 125.552 361.717 125.552C362.489 125.552 363.066 125.734 363.449 126.1C363.837 126.465 364.031 126.979 364.031 127.64C364.031 127.924 363.965 128.394 363.831 129.049L362.587 135H361.013L362.283 128.893C362.393 128.394 362.448 128.037 362.448 127.822C362.448 127.521 362.352 127.283 362.161 127.109C361.97 126.935 361.7 126.848 361.352 126.848C360.882 126.848 360.404 126.99 359.916 127.274C359.429 127.559 359.049 127.933 358.777 128.397C358.51 128.855 358.275 129.562 358.072 130.519L357.132 135H355.558L356.863 128.762C356.955 128.339 357.002 128.037 357.002 127.857C357.002 127.556 356.906 127.312 356.715 127.126C356.529 126.941 356.286 126.848 355.984 126.848C355.537 126.848 355.068 126.99 354.575 127.274C354.087 127.559 353.69 127.956 353.383 128.466C353.075 128.971 352.823 129.693 352.626 130.633L351.712 135H350.138Z" fill="white"/>
<line x1="236" y1="0.75" x2="7" y2="0.75" stroke="white" stroke-width="1.5"/>
<line x1="7.25" y1="152" x2="7.25001" y2="-3.27835e-08" stroke="white" stroke-width="1.5"/>
<line x1="235.25" y1="127" x2="235.25" y2="-3.37792e-08" stroke="white" stroke-width="1.5"/>
<rect x="234.75" y="91.75" width="202.5" height="53.5" stroke="white" stroke-width="1.5"/>
<rect y="144" width="15" height="15" fill="white"/>
</svg>
