<svg width="385" height="152" viewBox="0 0 385 152" fill="none" xmlns="http://www.w3.org/2000/svg">
<path d="M282.817 117.541L285.488 104.761H286.941L286.671 106.048C287.211 105.486 287.692 105.097 288.116 104.882C288.545 104.662 288.997 104.552 289.473 104.552C290.354 104.552 291.085 104.874 291.665 105.517C292.245 106.155 292.535 107.072 292.535 108.267C292.535 109.229 292.376 110.108 292.057 110.903C291.738 111.692 291.346 112.327 290.882 112.808C290.418 113.289 289.948 113.643 289.473 113.869C288.997 114.096 288.51 114.209 288.011 114.209C286.903 114.209 286.045 113.646 285.436 112.521L284.392 117.541H282.817ZM285.932 110.224C285.932 110.914 285.981 111.393 286.08 111.66C286.225 112.037 286.463 112.341 286.793 112.573C287.124 112.805 287.507 112.921 287.942 112.921C288.846 112.921 289.577 112.414 290.134 111.399C290.691 110.378 290.969 109.337 290.969 108.275C290.969 107.492 290.781 106.889 290.404 106.466C290.033 106.037 289.569 105.822 289.012 105.822C288.612 105.822 288.24 105.929 287.898 106.144C287.556 106.353 287.237 106.669 286.941 107.092C286.651 107.51 286.41 108.023 286.219 108.632C286.028 109.241 285.932 109.772 285.932 110.224ZM299.739 112.852C299.194 113.321 298.669 113.666 298.164 113.887C297.66 114.102 297.12 114.209 296.546 114.209C295.693 114.209 295.006 113.959 294.484 113.461C293.962 112.956 293.701 112.312 293.701 111.529C293.701 111.013 293.817 110.558 294.049 110.163C294.287 109.763 294.6 109.444 294.989 109.206C295.377 108.963 295.853 108.789 296.415 108.684C296.769 108.615 297.439 108.56 298.425 108.519C299.417 108.478 300.127 108.374 300.557 108.206C300.678 107.777 300.739 107.42 300.739 107.136C300.739 106.77 300.606 106.483 300.339 106.274C299.974 105.984 299.44 105.839 298.738 105.839C298.077 105.839 297.535 105.987 297.111 106.283C296.694 106.573 296.389 106.988 296.198 107.527L294.606 107.388C294.931 106.472 295.444 105.77 296.146 105.283C296.853 104.795 297.744 104.552 298.817 104.552C299.959 104.552 300.864 104.824 301.531 105.37C302.041 105.776 302.297 106.303 302.297 106.953C302.297 107.446 302.224 108.017 302.079 108.667L301.566 110.964C301.403 111.694 301.322 112.289 301.322 112.747C301.322 113.037 301.386 113.455 301.514 114H299.922C299.835 113.698 299.774 113.316 299.739 112.852ZM300.322 109.319C300.101 109.406 299.864 109.473 299.608 109.519C299.359 109.566 298.938 109.615 298.347 109.667C297.43 109.749 296.784 109.853 296.407 109.981C296.03 110.102 295.746 110.3 295.554 110.572C295.363 110.845 295.267 111.146 295.267 111.477C295.267 111.918 295.418 112.28 295.719 112.564C296.027 112.849 296.462 112.991 297.024 112.991C297.546 112.991 298.048 112.854 298.53 112.582C299.011 112.303 299.391 111.918 299.669 111.425C299.948 110.932 300.165 110.23 300.322 109.319ZM305.35 104.761H306.908L305.672 110.494C305.545 111.085 305.481 111.541 305.481 111.86C305.481 112.208 305.585 112.472 305.794 112.651C306.009 112.825 306.328 112.912 306.751 112.912C307.232 112.912 307.714 112.779 308.195 112.512C308.682 112.245 309.077 111.895 309.378 111.46C309.686 111.025 309.982 110.157 310.266 108.858L311.153 104.761H312.737L311.319 111.32C311.174 111.987 311.101 112.356 311.101 112.425C311.101 112.744 311.295 112.904 311.684 112.904H312.737L311.893 116.688H310.579L311.153 114.165C310.701 114.165 310.33 114.049 310.04 113.817C309.75 113.585 309.605 113.258 309.605 112.834C309.605 112.741 309.608 112.62 309.613 112.469L309.344 112.721C308.3 113.713 307.261 114.209 306.229 114.209C305.562 114.209 305.011 114.015 304.576 113.626C304.141 113.237 303.924 112.692 303.924 111.99C303.924 111.66 303.987 111.193 304.115 110.59L305.35 104.761ZM319.932 112.33C318.824 113.582 317.69 114.209 316.53 114.209C315.816 114.209 315.239 114.006 314.799 113.6C314.364 113.188 314.146 112.686 314.146 112.095C314.146 111.706 314.245 111.039 314.442 110.094L315.555 104.761H317.13L315.895 110.668C315.79 111.161 315.738 111.544 315.738 111.816C315.738 112.164 315.843 112.437 316.051 112.634C316.266 112.825 316.579 112.921 316.991 112.921C317.432 112.921 317.861 112.814 318.279 112.599C318.702 112.385 319.064 112.095 319.366 111.729C319.673 111.364 319.923 110.932 320.114 110.433C320.242 110.114 320.39 109.554 320.558 108.754L321.393 104.761H322.968L321.036 114H319.584L319.932 112.33ZM332.616 104.761L330.598 114H329.049L329.867 110.155H329.345C328.69 110.155 328.257 110.175 328.049 110.215C327.84 110.256 327.579 110.392 327.266 110.624C326.952 110.856 326.665 111.155 326.404 111.52L324.656 114H322.742L324.499 111.651C325.102 110.839 325.737 110.297 326.404 110.024C325.749 109.85 325.256 109.569 324.925 109.18C324.595 108.786 324.429 108.281 324.429 107.666C324.429 107.139 324.58 106.637 324.882 106.161C325.189 105.68 325.604 105.326 326.126 105.1C326.654 104.874 327.469 104.761 328.571 104.761H332.616ZM330.789 106.005H328.614C327.419 106.005 326.686 106.17 326.413 106.501C326.146 106.825 326.013 107.182 326.013 107.571C326.013 107.907 326.097 108.191 326.265 108.423C326.433 108.649 326.631 108.789 326.857 108.841C327.083 108.893 327.472 108.919 328.023 108.919H330.145L330.789 106.005Z" fill="white"/>
<line x1="235" y1="0.75" x2="7" y2="0.75" stroke="white" stroke-width="1.5"/>
<line x1="7.25" y1="152" x2="7.25001" y2="-3.27835e-08" stroke="white" stroke-width="1.5"/>
<line x1="234.25" y1="127" x2="234.25" y2="-3.37792e-08" stroke="white" stroke-width="1.5"/>
<rect x="234.75" y="91.75" width="149.5" height="34.5" stroke="white" stroke-width="1.5"/>
<rect y="137" width="15" height="15" fill="white"/>
</svg>
