<svg width="259" height="43" viewBox="0 0 259 43" fill="none" xmlns="http://www.w3.org/2000/svg">
<path d="M33.5491 20.7606H35.1064L33.8188 26.6592C33.7028 27.2044 33.6448 27.6046 33.6448 27.8598C33.6448 28.1962 33.7318 28.4485 33.9058 28.6167C34.0798 28.7849 34.3408 28.869 34.6888 28.869C35.2224 28.869 35.7125 28.7182 36.1591 28.4166C36.6115 28.1092 36.9682 27.7496 37.2292 27.3378C37.496 26.9202 37.7222 26.2938 37.9078 25.4586L38.9431 20.7606H40.5004L39.178 26.7897C39.0794 27.2537 39.0301 27.6133 39.0301 27.8685C39.0301 28.1991 39.1113 28.4485 39.2737 28.6167C39.4419 28.7849 39.6884 28.869 40.0132 28.869C40.6918 28.869 41.3588 28.5761 42.0142 27.9903C42.6696 27.4045 43.1162 26.491 43.354 25.2498C43.3656 25.1918 43.3772 25.128 43.3888 25.0584L44.3458 20.7606H45.8857L43.876 30H42.3274L42.658 28.4514C41.7938 29.623 40.7904 30.2088 39.6478 30.2088C39.0156 30.2088 38.4965 30.029 38.0905 29.6694C37.6845 29.304 37.467 28.898 37.438 28.4514C36.9508 29.0372 36.4433 29.478 35.9155 29.7738C35.3935 30.0638 34.8512 30.2088 34.2886 30.2088C33.6564 30.2088 33.1257 30.029 32.6965 29.6694C32.2673 29.3098 32.0527 28.8371 32.0527 28.2513C32.0527 27.8453 32.1542 27.1696 32.3572 26.2242L33.5491 20.7606ZM48.9829 20.7606H55.9429L53.9767 30H52.4107L54.1333 22.0743H50.2531L49.0612 27.5814C48.8582 28.5268 48.5856 29.188 48.2434 29.565C47.9012 29.9362 47.4285 30.1218 46.8253 30.1218C46.4773 30.1218 46.0162 30.0812 45.442 30L45.7291 28.695C45.9727 28.7124 46.1931 28.7211 46.3903 28.7211C46.7905 28.7211 47.0515 28.6225 47.1733 28.4253C47.3009 28.2223 47.4807 27.6104 47.7127 26.5896L48.9829 20.7606ZM63.2248 26.8593L64.756 27.0159C64.5356 27.7757 64.0281 28.4978 63.2335 29.1822C62.4447 29.8666 61.5022 30.2088 60.406 30.2088C59.7216 30.2088 59.0923 30.0522 58.5181 29.739C57.9497 29.42 57.5147 28.9589 57.2131 28.3557C56.9173 27.7525 56.7694 27.0652 56.7694 26.2938C56.7694 25.2846 57.0014 24.3073 57.4654 23.3619C57.9352 22.4107 58.5413 21.706 59.2837 21.2478C60.0261 20.7838 60.8294 20.5518 61.6936 20.5518C62.7956 20.5518 63.6743 20.894 64.3297 21.5784C64.9909 22.2628 65.3215 23.1966 65.3215 24.3798C65.3215 24.8322 65.2809 25.2962 65.1997 25.7718H58.3963C58.3731 25.9516 58.3615 26.114 58.3615 26.259C58.3615 27.1232 58.5587 27.7844 58.9531 28.2426C59.3533 28.695 59.8405 28.9212 60.4147 28.9212C60.9541 28.9212 61.4848 28.7443 62.0068 28.3905C62.5288 28.0367 62.9348 27.5263 63.2248 26.8593ZM58.6486 24.5712H63.8338C63.8396 24.4088 63.8425 24.2928 63.8425 24.2232C63.8425 23.4344 63.6453 22.8312 63.2509 22.4136C62.8565 21.9902 62.349 21.7785 61.7284 21.7785C61.0556 21.7785 60.4408 22.0105 59.884 22.4745C59.333 22.9385 58.9212 23.6374 58.6486 24.5712ZM68.0882 20.7606H70.4285L71.2985 28.1295L75.5876 20.7606H77.8844L75.9095 30H74.3522L75.9617 22.5528L71.6291 30H70.2284L69.3149 22.2657L67.6619 30H66.1046L68.0882 20.7606Z" fill="white"/>
<rect x="0.75" y="7.75" width="107.5" height="34.5" stroke="white" stroke-width="1.5"/>
<line x1="-6.55671e-08" y1="7.25" x2="246" y2="7.24998" stroke="white" stroke-width="1.5"/>
<rect x="244" width="15" height="15" fill="white"/>
</svg>
