<svg width="323" height="43" viewBox="0 0 323 43" fill="none" xmlns="http://www.w3.org/2000/svg">
<line x1="53" y1="35.25" x2="315" y2="35.25" stroke="white" stroke-width="1.5"/>
<path d="M36.9687 20.6331L38.5434 20.7984C38.149 21.9526 37.5864 22.811 36.8556 23.3736C36.1306 23.9304 35.3041 24.2088 34.3761 24.2088C33.3727 24.2088 32.5578 23.884 31.9314 23.2344C31.3108 22.5848 31.0005 21.6771 31.0005 20.5113C31.0005 19.5021 31.2006 18.5103 31.6008 17.5359C32.001 16.5615 32.5723 15.822 33.3147 15.3174C34.0629 14.807 34.9155 14.5518 35.8725 14.5518C36.8643 14.5518 37.6502 14.8331 38.2302 15.3957C38.8102 15.9525 39.1002 16.692 39.1002 17.6142L37.5516 17.7186C37.5458 17.1328 37.3747 16.6746 37.0383 16.344C36.7077 16.0134 36.2698 15.8481 35.7246 15.8481C35.0924 15.8481 34.5443 16.0482 34.0803 16.4484C33.6163 16.8486 33.2509 17.4576 32.9841 18.2754C32.7231 19.0874 32.5926 19.8704 32.5926 20.6244C32.5926 21.4132 32.7666 22.0048 33.1146 22.3992C33.4626 22.7936 33.8918 22.9908 34.4022 22.9908C34.9126 22.9908 35.3998 22.7965 35.8638 22.4079C36.3336 22.0193 36.7019 21.4277 36.9687 20.6331ZM46.2864 20.8593L47.8176 21.0159C47.5972 21.7757 47.0897 22.4978 46.2951 23.1822C45.5063 23.8666 44.5638 24.2088 43.4676 24.2088C42.7832 24.2088 42.1539 24.0522 41.5797 23.739C41.0113 23.42 40.5763 22.9589 40.2747 22.3557C39.9789 21.7525 39.831 21.0652 39.831 20.2938C39.831 19.2846 40.063 18.3073 40.527 17.3619C40.9968 16.4107 41.6029 15.706 42.3453 15.2478C43.0877 14.7838 43.891 14.5518 44.7552 14.5518C45.8572 14.5518 46.7359 14.894 47.3913 15.5784C48.0525 16.2628 48.3831 17.1966 48.3831 18.3798C48.3831 18.8322 48.3425 19.2962 48.2613 19.7718H41.4579C41.4347 19.9516 41.4231 20.114 41.4231 20.259C41.4231 21.1232 41.6203 21.7844 42.0147 22.2426C42.4149 22.695 42.9021 22.9212 43.4763 22.9212C44.0157 22.9212 44.5464 22.7443 45.0684 22.3905C45.5904 22.0367 45.9964 21.5263 46.2864 20.8593ZM41.7102 18.5712H46.8954C46.9012 18.4088 46.9041 18.2928 46.9041 18.2232C46.9041 17.4344 46.7069 16.8312 46.3125 16.4136C45.9181 15.9902 45.4106 15.7785 44.79 15.7785C44.1172 15.7785 43.5024 16.0105 42.9456 16.4745C42.3946 16.9385 41.9828 17.6374 41.7102 18.5712ZM51.402 14.7606H52.9419L52.0632 18.7104L52.3416 18.7191C52.7766 18.7191 53.1304 18.6089 53.403 18.3885C53.6756 18.1623 54.0642 17.6345 54.5688 16.8051C55.0908 15.9525 55.5316 15.3986 55.8912 15.1434C56.2566 14.8882 56.7467 14.7606 57.3615 14.7606H58.0923L57.8052 16.0221H57.4311C57.0425 16.0221 56.7728 16.0743 56.622 16.1787C56.477 16.2831 56.2595 16.5847 55.9695 17.0835C55.5751 17.7679 55.23 18.258 54.9342 18.5538C54.6384 18.8438 54.2585 19.0729 53.7945 19.2411C54.1831 19.3919 54.4934 19.6094 54.7254 19.8936C54.9632 20.1778 55.1923 20.6099 55.4127 21.1899L56.4915 24H54.8646L53.9946 21.6858C53.6698 20.8274 53.3682 20.2764 53.0898 20.0328C52.8114 19.7892 52.4054 19.6674 51.8718 19.6674L50.9322 24H49.3749L51.402 14.7606ZM57.0657 27.5409L59.7366 14.7606H61.1895L60.9198 16.0482C61.4592 15.4856 61.9406 15.097 62.364 14.8824C62.7932 14.662 63.2456 14.5518 63.7212 14.5518C64.6028 14.5518 65.3336 14.8737 65.9137 15.5175C66.4937 16.1555 66.7837 17.0719 66.7837 18.2667C66.7837 19.2295 66.6242 20.1082 66.3052 20.9028C65.9862 21.6916 65.5946 22.3267 65.1306 22.8081C64.6666 23.2895 64.1968 23.6433 63.7212 23.8695C63.2456 24.0957 62.7584 24.2088 62.2596 24.2088C61.1518 24.2088 60.2934 23.6462 59.6844 22.521L58.6404 27.5409H57.0657ZM60.1803 20.2242C60.1803 20.9144 60.2296 21.3929 60.3282 21.6597C60.4732 22.0367 60.711 22.3412 61.0416 22.5732C61.3722 22.8052 61.755 22.9212 62.19 22.9212C63.0948 22.9212 63.8256 22.4137 64.3824 21.3987C64.9392 20.3779 65.2176 19.3368 65.2176 18.2754C65.2176 17.4924 65.0291 16.8892 64.6521 16.4658C64.2809 16.0366 63.8169 15.822 63.2601 15.822C62.8599 15.822 62.4887 15.9293 62.1465 16.1439C61.8043 16.3527 61.4853 16.6688 61.1895 17.0922C60.8995 17.5098 60.6588 18.0231 60.4674 18.6321C60.276 19.2411 60.1803 19.7718 60.1803 20.2242ZM74.5441 20.8593L76.0753 21.0159C75.8549 21.7757 75.3474 22.4978 74.5528 23.1822C73.764 23.8666 72.8215 24.2088 71.7253 24.2088C71.0409 24.2088 70.4116 24.0522 69.8374 23.739C69.269 23.42 68.834 22.9589 68.5324 22.3557C68.2366 21.7525 68.0887 21.0652 68.0887 20.2938C68.0887 19.2846 68.3207 18.3073 68.7847 17.3619C69.2545 16.4107 69.8606 15.706 70.603 15.2478C71.3454 14.7838 72.1487 14.5518 73.0129 14.5518C74.1149 14.5518 74.9936 14.894 75.649 15.5784C76.3102 16.2628 76.6408 17.1966 76.6408 18.3798C76.6408 18.8322 76.6002 19.2962 76.519 19.7718H69.7156C69.6924 19.9516 69.6808 20.114 69.6808 20.259C69.6808 21.1232 69.878 21.7844 70.2724 22.2426C70.6726 22.695 71.1598 22.9212 71.734 22.9212C72.2734 22.9212 72.8041 22.7443 73.3261 22.3905C73.8481 22.0367 74.2541 21.5263 74.5441 20.8593ZM69.9679 18.5712H75.1531C75.1589 18.4088 75.1618 18.2928 75.1618 18.2232C75.1618 17.4344 74.9646 16.8312 74.5702 16.4136C74.1758 15.9902 73.6683 15.7785 73.0477 15.7785C72.3749 15.7785 71.7601 16.0105 71.2033 16.4745C70.6523 16.9385 70.2405 17.6374 69.9679 18.5712ZM77.4586 24L79.39 14.7606H80.9647L80.6428 16.2831C81.2286 15.6277 81.7506 15.1753 82.2088 14.9259C82.6728 14.6765 83.1745 14.5518 83.7139 14.5518C84.2881 14.5518 84.7666 14.7055 85.1494 15.0129C85.538 15.3145 85.7932 15.7379 85.915 16.2831C86.3848 15.7031 86.8778 15.271 87.394 14.9868C87.916 14.6968 88.4641 14.5518 89.0383 14.5518C89.8097 14.5518 90.3868 14.7345 90.7696 15.0999C91.1582 15.4653 91.3525 15.9786 91.3525 16.6398C91.3525 16.924 91.2858 17.3938 91.1524 18.0492L89.9083 24H88.3336L89.6038 17.8926C89.714 17.3938 89.7691 17.0371 89.7691 16.8225C89.7691 16.5209 89.6734 16.2831 89.482 16.1091C89.2906 15.9351 89.0209 15.8481 88.6729 15.8481C88.2031 15.8481 87.7246 15.9902 87.2374 16.2744C86.7502 16.5586 86.3703 16.9327 86.0977 17.3967C85.8309 17.8549 85.596 18.5625 85.393 19.5195L84.4534 24H82.8787L84.1837 17.7621C84.2765 17.3387 84.3229 17.0371 84.3229 16.8573C84.3229 16.5557 84.2272 16.3121 84.0358 16.1265C83.8502 15.9409 83.6066 15.8481 83.305 15.8481C82.8584 15.8481 82.3886 15.9902 81.8956 16.2744C81.4084 16.5586 81.0111 16.9559 80.7037 17.4663C80.3963 17.9709 80.144 18.693 79.9468 19.6326L79.0333 24H77.4586ZM94.2409 14.7606H95.7982L94.963 18.6147H99.2521L100.07 14.7606H101.61L99.661 24H98.095L98.9824 19.8675H94.7107L93.8233 24H92.266L94.2409 14.7606ZM113.181 14.7606H114.773L112.772 24H111.189L113.181 14.7606ZM104.072 14.7606H105.647L104.855 18.3363H106.534C107.607 18.3363 108.373 18.4146 108.831 18.5712C109.289 18.7278 109.649 19.0149 109.91 19.4325C110.171 19.8443 110.301 20.3054 110.301 20.8158C110.301 21.4306 110.121 22.0193 109.762 22.5819C109.408 23.1445 108.97 23.5215 108.448 23.7129C107.926 23.9043 107.114 24 106.012 24H102.08L104.072 14.7606ZM103.898 22.7472H105.908C106.696 22.7472 107.25 22.695 107.569 22.5906C107.894 22.4862 108.167 22.2977 108.387 22.0251C108.608 21.7467 108.718 21.4103 108.718 21.0159C108.718 20.6679 108.619 20.3721 108.422 20.1285C108.231 19.8849 108.007 19.737 107.752 19.6848C107.503 19.6268 107.042 19.5978 106.369 19.5978H104.577L103.898 22.7472ZM122.029 20.8593L123.56 21.0159C123.34 21.7757 122.832 22.4978 122.037 23.1822C121.249 23.8666 120.306 24.2088 119.21 24.2088C118.526 24.2088 117.896 24.0522 117.322 23.739C116.754 23.42 116.319 22.9589 116.017 22.3557C115.721 21.7525 115.573 21.0652 115.573 20.2938C115.573 19.2846 115.805 18.3073 116.269 17.3619C116.739 16.4107 117.345 15.706 118.088 15.2478C118.83 14.7838 119.633 14.5518 120.498 14.5518C121.6 14.5518 122.478 14.894 123.134 15.5784C123.795 16.2628 124.125 17.1966 124.125 18.3798C124.125 18.8322 124.085 19.2962 124.004 19.7718H117.2C117.177 19.9516 117.165 20.114 117.165 20.259C117.165 21.1232 117.363 21.7844 117.757 22.2426C118.157 22.695 118.644 22.9212 119.219 22.9212C119.758 22.9212 120.289 22.7443 120.811 22.3905C121.333 22.0367 121.739 21.5263 122.029 20.8593ZM117.453 18.5712H122.638C122.644 18.4088 122.646 18.2928 122.646 18.2232C122.646 17.4344 122.449 16.8312 122.055 16.4136C121.66 15.9902 121.153 15.7785 120.532 15.7785C119.86 15.7785 119.245 16.0105 118.688 16.4745C118.137 16.9385 117.725 17.6374 117.453 18.5712ZM133.495 12.3942L133.791 11.0283H134.931C136.387 11.0283 137.474 11.4082 138.193 12.168C138.918 12.9278 139.281 14.1226 139.281 15.7524C139.281 18.3856 138.837 20.4533 137.95 21.9555C137.068 23.4577 135.801 24.2088 134.148 24.2088C133.075 24.2088 132.182 23.884 131.468 23.2344C130.755 22.5848 130.398 21.6249 130.398 20.3547C130.398 18.7307 130.885 17.359 131.86 16.2396C132.834 15.1144 134 14.5518 135.357 14.5518C135.949 14.5518 136.456 14.6852 136.88 14.952C137.303 15.213 137.642 15.6103 137.898 16.1439C137.898 15.3377 137.857 14.7403 137.776 14.3517C137.7 13.9631 137.529 13.6064 137.262 13.2816C136.996 12.9568 136.656 12.7277 136.245 12.5943C135.833 12.4551 135.256 12.3855 134.513 12.3855L133.495 12.3942ZM131.973 20.4243C131.973 21.1725 132.167 21.7786 132.556 22.2426C132.944 22.7066 133.49 22.9386 134.191 22.9386C135.206 22.9386 136.021 22.4514 136.636 21.477C137.251 20.4968 137.558 19.4441 137.558 18.3189C137.558 17.5997 137.367 16.9994 136.984 16.518C136.601 16.0366 136.068 15.7959 135.383 15.7959C134.339 15.7959 133.51 16.2773 132.895 17.2401C132.28 18.2029 131.973 19.2643 131.973 20.4243ZM140.247 20.4939C140.247 18.6901 140.777 17.1966 141.839 16.0134C142.714 15.039 143.863 14.5518 145.284 14.5518C146.397 14.5518 147.294 14.8998 147.972 15.5958C148.657 16.2918 148.999 17.2314 148.999 18.4146C148.999 19.476 148.784 20.4649 148.355 21.3813C147.926 22.2919 147.314 22.9908 146.519 23.478C145.73 23.9652 144.898 24.2088 144.022 24.2088C143.303 24.2088 142.648 24.0551 142.056 23.7477C141.47 23.4403 141.021 23.0053 140.708 22.4427C140.4 21.8801 140.247 21.2305 140.247 20.4939ZM141.821 20.3373C141.821 21.2073 142.03 21.8685 142.448 22.3209C142.865 22.7675 143.396 22.9908 144.04 22.9908C144.376 22.9908 144.71 22.9241 145.04 22.7907C145.371 22.6515 145.678 22.4427 145.962 22.1643C146.247 21.8859 146.487 21.5698 146.685 21.216C146.888 20.8564 147.05 20.4707 147.172 20.0589C147.352 19.4847 147.441 18.9337 147.441 18.4059C147.441 17.5707 147.23 16.924 146.806 16.4658C146.389 16.0018 145.861 15.7698 145.223 15.7698C144.73 15.7698 144.28 15.8887 143.874 16.1265C143.468 16.3585 143.1 16.7007 142.77 17.1531C142.445 17.6055 142.204 18.1333 142.047 18.7365C141.897 19.3339 141.821 19.8675 141.821 20.3373ZM151.87 14.7606H153.41L152.531 18.7104L152.809 18.7191C153.244 18.7191 153.598 18.6089 153.871 18.3885C154.143 18.1623 154.532 17.6345 155.037 16.8051C155.559 15.9525 155.999 15.3986 156.359 15.1434C156.724 14.8882 157.214 14.7606 157.829 14.7606H158.56L158.273 16.0221H157.899C157.51 16.0221 157.241 16.0743 157.09 16.1787C156.945 16.2831 156.727 16.5847 156.437 17.0835C156.043 17.7679 155.698 18.258 155.402 18.5538C155.106 18.8438 154.726 19.0729 154.262 19.2411C154.651 19.3919 154.961 19.6094 155.193 19.8936C155.431 20.1778 155.66 20.6099 155.88 21.1899L156.959 24H155.332L154.462 21.6858C154.138 20.8274 153.836 20.2764 153.558 20.0328C153.279 19.7892 152.873 19.6674 152.34 19.6674L151.4 24H149.843L151.87 14.7606ZM157.716 27.567L157.812 26.088C158.137 26.1808 158.453 26.2272 158.76 26.2272C159.079 26.2272 159.337 26.1547 159.534 26.0097C159.79 25.8183 160.068 25.4587 160.37 24.9309L160.874 24.0261L159.334 14.7606H160.883L161.579 19.4325C161.718 20.3547 161.837 21.2769 161.936 22.1991L166.068 14.7606H167.712L161.823 25.2267C161.254 26.2475 160.75 26.9232 160.309 27.2538C159.868 27.5844 159.36 27.7497 158.786 27.7497C158.421 27.7497 158.064 27.6888 157.716 27.567ZM169.157 14.7606H171.497L172.367 22.1295L176.656 14.7606H178.953L176.978 24H175.421L177.03 16.5528L172.698 24H171.297L170.383 16.2657L168.73 24H167.173L169.157 14.7606ZM186.217 20.8593L187.749 21.0159C187.528 21.7757 187.021 22.4978 186.226 23.1822C185.437 23.8666 184.495 24.2088 183.399 24.2088C182.714 24.2088 182.085 24.0522 181.511 23.739C180.942 23.42 180.507 22.9589 180.206 22.3557C179.91 21.7525 179.762 21.0652 179.762 20.2938C179.762 19.2846 179.994 18.3073 180.458 17.3619C180.928 16.4107 181.534 15.706 182.276 15.2478C183.019 14.7838 183.822 14.5518 184.686 14.5518C185.788 14.5518 186.667 14.894 187.322 15.5784C187.984 16.2628 188.314 17.1966 188.314 18.3798C188.314 18.8322 188.274 19.2962 188.192 19.7718H181.389C181.366 19.9516 181.354 20.114 181.354 20.259C181.354 21.1232 181.551 21.7844 181.946 22.2426C182.346 22.695 182.833 22.9212 183.407 22.9212C183.947 22.9212 184.477 22.7443 184.999 22.3905C185.521 22.0367 185.927 21.5263 186.217 20.8593ZM181.641 18.5712H186.826C186.832 18.4088 186.835 18.2928 186.835 18.2232C186.835 17.4344 186.638 16.8312 186.244 16.4136C185.849 15.9902 185.342 15.7785 184.721 15.7785C184.048 15.7785 183.433 16.0105 182.877 16.4745C182.326 16.9385 181.914 17.6374 181.641 18.5712ZM191.281 14.7606H192.838L192.003 18.6147H196.292L197.11 14.7606H198.65L196.701 24H195.135L196.022 19.8675H191.751L190.863 24H189.306L191.281 14.7606ZM199.154 24L201.086 14.7606H202.66L202.339 16.2831C202.924 15.6277 203.446 15.1753 203.905 14.9259C204.369 14.6765 204.87 14.5518 205.41 14.5518C205.984 14.5518 206.462 14.7055 206.845 15.0129C207.234 15.3145 207.489 15.7379 207.611 16.2831C208.081 15.7031 208.574 15.271 209.09 14.9868C209.612 14.6968 210.16 14.5518 210.734 14.5518C211.505 14.5518 212.083 14.7345 212.465 15.0999C212.854 15.4653 213.048 15.9786 213.048 16.6398C213.048 16.924 212.982 17.3938 212.848 18.0492L211.604 24H210.029L211.3 17.8926C211.41 17.3938 211.465 17.0371 211.465 16.8225C211.465 16.5209 211.369 16.2831 211.178 16.1091C210.986 15.9351 210.717 15.8481 210.369 15.8481C209.899 15.8481 209.42 15.9902 208.933 16.2744C208.446 16.5586 208.066 16.9327 207.793 17.3967C207.527 17.8549 207.292 18.5625 207.089 19.5195L206.149 24H204.574L205.879 17.7621C205.972 17.3387 206.019 17.0371 206.019 16.8573C206.019 16.5557 205.923 16.3121 205.732 16.1265C205.546 15.9409 205.302 15.8481 205.001 15.8481C204.554 15.8481 204.084 15.9902 203.591 16.2744C203.104 16.5586 202.707 16.9559 202.399 17.4663C202.092 17.9709 201.84 18.693 201.643 19.6326L200.729 24H199.154ZM225.063 14.7606H226.655L224.654 24H223.071L225.063 14.7606ZM215.954 14.7606H217.529L216.737 18.3363H218.416C219.489 18.3363 220.255 18.4146 220.713 18.5712C221.171 18.7278 221.531 19.0149 221.792 19.4325C222.053 19.8443 222.183 20.3054 222.183 20.8158C222.183 21.4306 222.003 22.0193 221.644 22.5819C221.29 23.1445 220.852 23.5215 220.33 23.7129C219.808 23.9043 218.996 24 217.894 24H213.962L215.954 14.7606ZM215.78 22.7472H217.79C218.579 22.7472 219.132 22.695 219.451 22.5906C219.776 22.4862 220.049 22.2977 220.269 22.0251C220.49 21.7467 220.6 21.4103 220.6 21.0159C220.6 20.6679 220.501 20.3721 220.304 20.1285C220.113 19.8849 219.889 19.737 219.634 19.6848C219.385 19.6268 218.924 19.5978 218.251 19.5978H216.459L215.78 22.7472Z" fill="white"/>
<rect x="0.75" y="0.75" width="255.5" height="34.5" stroke="white" stroke-width="1.5"/>
<rect x="308" y="28" width="15" height="15" fill="white"/>
</svg>
