<svg width="1288" height="60" viewBox="0 0 1288 60" fill="none" xmlns="http://www.w3.org/2000/svg">
<g filter="url(#filter0_d_217_164)">
<line x1="4" y1="1" x2="1284" y2="1.00011" stroke="white" stroke-width="2"/>
<path d="M52.1172 19.8203H54.3906V27.3438C55.4297 27.3438 56.1602 27.1445 56.582 26.7461C57.0039 26.3398 57.543 25.3711 58.1992 23.8398C58.6758 22.7148 59.0664 21.9219 59.3711 21.4609C59.6836 20.9922 60.125 20.6016 60.6953 20.2891C61.2656 19.9688 61.8945 19.8086 62.582 19.8086C63.457 19.8086 63.918 19.8164 63.9648 19.832V21.8008C63.8867 21.8008 63.7344 21.7969 63.5078 21.7891C63.2578 21.7812 63.1055 21.7773 63.0508 21.7773C62.3242 21.7773 61.7852 21.9531 61.4336 22.3047C61.0742 22.6562 60.6641 23.4062 60.2031 24.5547C59.625 26.0078 59.1367 26.9258 58.7383 27.3086C58.3398 27.6836 57.8633 27.9844 57.3086 28.2109C58.418 28.5156 59.5117 29.5391 60.5898 31.2812L64.1289 37H61.3047L58.4336 32.3359C57.6445 31.0469 56.9844 30.1641 56.4531 29.6875C55.9219 29.2031 55.2344 28.9609 54.3906 28.9609V37H52.1172V19.8203ZM65.1016 28.6328C65.1016 25.7812 65.8672 23.5508 67.3984 21.9414C68.9297 20.3242 70.9062 19.5156 73.3281 19.5156C74.9141 19.5156 76.3438 19.8945 77.6172 20.6523C78.8906 21.4102 79.8594 22.4688 80.5234 23.8281C81.1953 25.1797 81.5312 26.7148 81.5312 28.4336C81.5312 30.1758 81.1797 31.7344 80.4766 33.1094C79.7734 34.4844 78.7773 35.5273 77.4883 36.2383C76.1992 36.9414 74.8086 37.293 73.3164 37.293C71.6992 37.293 70.2539 36.9023 68.9805 36.1211C67.707 35.3398 66.7422 34.2734 66.0859 32.9219C65.4297 31.5703 65.1016 30.1406 65.1016 28.6328ZM67.4453 28.668C67.4453 30.7383 68 32.3711 69.1094 33.5664C70.2266 34.7539 71.625 35.3477 73.3047 35.3477C75.0156 35.3477 76.4219 34.7461 77.5234 33.543C78.6328 32.3398 79.1875 30.6328 79.1875 28.4219C79.1875 27.0234 78.9492 25.8047 78.4727 24.7656C78.0039 23.7188 77.3125 22.9102 76.3984 22.3398C75.4922 21.7617 74.4727 21.4727 73.3398 21.4727C71.7305 21.4727 70.3438 22.0273 69.1797 23.1367C68.0234 24.2383 67.4453 26.082 67.4453 28.668ZM84.543 37V19.8203H86.8164V26.875H95.7461V19.8203H98.0195V37H95.7461V28.9023H86.8164V37H84.543ZM106.188 37V21.8477H100.527V19.8203H114.145V21.8477H108.461V37H106.188ZM113.805 37L120.402 19.8203H122.852L129.883 37H127.293L125.289 31.7969H118.105L116.219 37H113.805ZM118.762 29.9453H124.586L122.793 25.1875C122.246 23.7422 121.84 22.5547 121.574 21.625C121.355 22.7266 121.047 23.8203 120.648 24.9062L118.762 29.9453ZM131.734 19.8203H134.008V27.3438C135.047 27.3438 135.777 27.1445 136.199 26.7461C136.621 26.3398 137.16 25.3711 137.816 23.8398C138.293 22.7148 138.684 21.9219 138.988 21.4609C139.301 20.9922 139.742 20.6016 140.312 20.2891C140.883 19.9688 141.512 19.8086 142.199 19.8086C143.074 19.8086 143.535 19.8164 143.582 19.832V21.8008C143.504 21.8008 143.352 21.7969 143.125 21.7891C142.875 21.7812 142.723 21.7773 142.668 21.7773C141.941 21.7773 141.402 21.9531 141.051 22.3047C140.691 22.6562 140.281 23.4062 139.82 24.5547C139.242 26.0078 138.754 26.9258 138.355 27.3086C137.957 27.6836 137.48 27.9844 136.926 28.2109C138.035 28.5156 139.129 29.5391 140.207 31.2812L143.746 37H140.922L138.051 32.3359C137.262 31.0469 136.602 30.1641 136.07 29.6875C135.539 29.2031 134.852 28.9609 134.008 28.9609V37H131.734V19.8203ZM150.062 37V21.8477H144.402V19.8203H158.02V21.8477H152.336V37H150.062ZM160.48 19.8203H162.754V27.1562H166.855C169.543 27.1562 171.309 27.6523 172.152 28.6445C173.004 29.6367 173.43 30.7617 173.43 32.0195C173.43 33.3477 172.977 34.5117 172.07 35.5117C171.164 36.5039 169.48 37 167.02 37H160.48V19.8203ZM162.754 35.0664H166.914C168.344 35.0664 169.379 34.8281 170.02 34.3516C170.668 33.8672 170.992 33.0977 170.992 32.043C170.992 31.3242 170.797 30.7227 170.406 30.2383C170.016 29.7539 169.512 29.4453 168.895 29.3125C168.277 29.1797 167.246 29.1133 165.801 29.1133H162.754V35.0664ZM175.492 19.8203H177.766V37H175.492V19.8203Z" fill="white"/>
<line x1="233" y1="52" x2="233" y2="2" stroke="white" stroke-width="2"/>
<path d="M276.994 19.8203H290.506V37H288.221V21.8477H279.268V37H276.994V19.8203ZM293.65 28.6328C293.65 25.7812 294.415 23.5508 295.946 21.9414C297.478 20.3242 299.454 19.5156 301.876 19.5156C303.462 19.5156 304.892 19.8945 306.165 20.6523C307.439 21.4102 308.407 22.4688 309.071 23.8281C309.743 25.1797 310.079 26.7148 310.079 28.4336C310.079 30.1758 309.728 31.7344 309.025 33.1094C308.321 34.4844 307.325 35.5273 306.036 36.2383C304.747 36.9414 303.357 37.293 301.864 37.293C300.247 37.293 298.802 36.9023 297.528 36.1211C296.255 35.3398 295.29 34.2734 294.634 32.9219C293.978 31.5703 293.65 30.1406 293.65 28.6328ZM295.993 28.668C295.993 30.7383 296.548 32.3711 297.657 33.5664C298.775 34.7539 300.173 35.3477 301.853 35.3477C303.564 35.3477 304.97 34.7461 306.071 33.543C307.181 32.3398 307.735 30.6328 307.735 28.4219C307.735 27.0234 307.497 25.8047 307.021 24.7656C306.552 23.7188 305.86 22.9102 304.946 22.3398C304.04 21.7617 303.021 21.4727 301.888 21.4727C300.278 21.4727 298.892 22.0273 297.728 23.1367C296.571 24.2383 295.993 26.082 295.993 28.668ZM324.859 37H322.586V30.0742C320.547 30.832 318.762 31.2109 317.23 31.2109C316.035 31.2109 314.98 30.9336 314.066 30.3789C313.152 29.8164 312.539 29.1055 312.227 28.2461C311.922 27.3867 311.77 26.2617 311.77 24.8711V19.8203H314.043V24.6602C314.043 26.5352 314.383 27.7695 315.062 28.3633C315.75 28.9492 316.574 29.2422 317.535 29.2422C319.137 29.2422 320.82 28.8867 322.586 28.1758V19.8203H324.859V37ZM333.1 37V21.8477H327.44V19.8203H341.057V21.8477H335.374V37H333.1ZM340.838 37L347.435 19.8203H349.885L356.916 37H354.326L352.322 31.7969H345.138L343.252 37H340.838ZM345.795 29.9453H351.619L349.826 25.1875C349.279 23.7422 348.873 22.5547 348.607 21.625C348.388 22.7266 348.08 23.8203 347.681 24.9062L345.795 29.9453Z" fill="white"/>
<line x1="401" y1="52" x2="401" y2="2" stroke="white" stroke-width="2"/>
<line x1="600" y1="52" x2="600" y2="2" stroke="white" stroke-width="2"/>
<path d="M451.432 30.9766L453.705 31.5508C453.228 33.418 452.369 34.8438 451.127 35.8281C449.893 36.8047 448.381 37.293 446.592 37.293C444.74 37.293 443.232 36.918 442.068 36.168C440.912 35.4102 440.029 34.3164 439.42 32.8867C438.818 31.457 438.518 29.9219 438.518 28.2812C438.518 26.4922 438.857 24.9336 439.537 23.6055C440.225 22.2695 441.197 21.2578 442.455 20.5703C443.721 19.875 445.111 19.5273 446.627 19.5273C448.346 19.5273 449.791 19.9648 450.963 20.8398C452.135 21.7148 452.951 22.9453 453.412 24.5312L451.174 25.0586C450.775 23.8086 450.197 22.8984 449.439 22.3281C448.682 21.7578 447.728 21.4727 446.58 21.4727C445.26 21.4727 444.154 21.7891 443.264 22.4219C442.381 23.0547 441.76 23.9062 441.4 24.9766C441.041 26.0391 440.861 27.1367 440.861 28.2695C440.861 29.7305 441.072 31.0078 441.494 32.1016C441.924 33.1875 442.588 34 443.486 34.5391C444.385 35.0781 445.357 35.3477 446.404 35.3477C447.678 35.3477 448.756 34.9805 449.639 34.2461C450.521 33.5117 451.119 32.4219 451.432 30.9766ZM455.407 28.6328C455.407 25.7812 456.173 23.5508 457.704 21.9414C459.235 20.3242 461.212 19.5156 463.634 19.5156C465.22 19.5156 466.649 19.8945 467.923 20.6523C469.196 21.4102 470.165 22.4688 470.829 23.8281C471.501 25.1797 471.837 26.7148 471.837 28.4336C471.837 30.1758 471.485 31.7344 470.782 33.1094C470.079 34.4844 469.083 35.5273 467.794 36.2383C466.505 36.9414 465.114 37.293 463.622 37.293C462.005 37.293 460.559 36.9023 459.286 36.1211C458.013 35.3398 457.048 34.2734 456.391 32.9219C455.735 31.5703 455.407 30.1406 455.407 28.6328ZM457.751 28.668C457.751 30.7383 458.305 32.3711 459.415 33.5664C460.532 34.7539 461.93 35.3477 463.61 35.3477C465.321 35.3477 466.727 34.7461 467.829 33.543C468.938 32.3398 469.493 30.6328 469.493 28.4219C469.493 27.0234 469.255 25.8047 468.778 24.7656C468.309 23.7188 467.618 22.9102 466.704 22.3398C465.798 21.7617 464.778 21.4727 463.645 21.4727C462.036 21.4727 460.649 22.0273 459.485 23.1367C458.329 24.2383 457.751 26.082 457.751 28.668ZM474.91 19.8203H477.183V34.9727H486.136V19.8203H488.422V34.9727H489.992V41.7695H487.976V37H474.91V19.8203ZM491.694 31.8438V29.7227H498.174V31.8438H491.694ZM513.154 30.9766L515.427 31.5508C514.951 33.418 514.091 34.8438 512.849 35.8281C511.615 36.8047 510.103 37.293 508.314 37.293C506.462 37.293 504.955 36.918 503.79 36.168C502.634 35.4102 501.751 34.3164 501.142 32.8867C500.54 31.457 500.24 29.9219 500.24 28.2812C500.24 26.4922 500.58 24.9336 501.259 23.6055C501.947 22.2695 502.919 21.2578 504.177 20.5703C505.443 19.875 506.833 19.5273 508.349 19.5273C510.068 19.5273 511.513 19.9648 512.685 20.8398C513.857 21.7148 514.673 22.9453 515.134 24.5312L512.896 25.0586C512.498 23.8086 511.919 22.8984 511.162 22.3281C510.404 21.7578 509.451 21.4727 508.302 21.4727C506.982 21.4727 505.876 21.7891 504.986 22.4219C504.103 23.0547 503.482 23.9062 503.123 24.9766C502.763 26.0391 502.583 27.1367 502.583 28.2695C502.583 29.7305 502.794 31.0078 503.216 32.1016C503.646 33.1875 504.31 34 505.208 34.5391C506.107 35.0781 507.08 35.3477 508.126 35.3477C509.4 35.3477 510.478 34.9805 511.361 34.2461C512.244 33.5117 512.841 32.4219 513.154 30.9766ZM518.407 37V19.8203H530.828V21.8477H520.68V27.1094H530.184V29.125H520.68V34.9727H531.227V37H518.407ZM538.859 37V21.8477H533.198V19.8203H546.816V21.8477H541.132V37H538.859ZM549.315 19.8203H551.377V33.4258L560.518 19.8203H562.803V37H560.74V23.4297L551.588 37H549.315V19.8203Z" fill="white"/>
</g>
<defs>
<filter id="filter0_d_217_164" x="0" y="0" width="1288" height="60" filterUnits="userSpaceOnUse" color-interpolation-filters="sRGB">
<feFlood flood-opacity="0" result="BackgroundImageFix"/>
<feColorMatrix in="SourceAlpha" type="matrix" values="0 0 0 0 0 0 0 0 0 0 0 0 0 0 0 0 0 0 127 0" result="hardAlpha"/>
<feOffset dy="4"/>
<feGaussianBlur stdDeviation="2"/>
<feComposite in2="hardAlpha" operator="out"/>
<feColorMatrix type="matrix" values="0 0 0 0 0 0 0 0 0 0 0 0 0 0 0 0 0 0 0.25 0"/>
<feBlend mode="normal" in2="BackgroundImageFix" result="effect1_dropShadow_217_164"/>
<feBlend mode="normal" in="SourceGraphic" in2="effect1_dropShadow_217_164" result="shape"/>
</filter>
</defs>
</svg>
